<svg width="494" height="220" viewBox="0 0 494 220" fill="none" xmlns="http://www.w3.org/2000/svg">
<path d="M127.909 145.644H127.409V146.144V210.098C127.409 212.021 126.974 213.61 126.133 214.893C125.292 216.175 124.021 217.188 122.288 217.919C120.549 218.652 118.904 218.894 117.343 218.671C115.785 218.448 114.277 217.758 112.816 216.574L3.20285 116.662C1.38943 114.846 0.499481 112.786 0.499481 110.467C0.499481 107.937 1.39249 105.787 3.19766 103.979C3.20007 103.977 3.20251 103.974 3.20493 103.972L112.812 2.91786C112.814 2.91649 112.815 2.9151 112.817 2.91373C114.283 1.63498 115.794 0.876556 117.351 0.609482C118.905 0.342819 120.543 0.559631 122.275 1.28972C124.011 2.11217 125.286 3.17218 126.13 4.45757C126.974 5.74373 127.407 7.28749 127.407 9.11116V73.0642V73.5642H127.907L484.22 73.5642C486.765 73.5642 488.823 74.3764 490.434 75.985C492.043 77.5911 492.855 79.6489 492.855 82.1942V137.01C492.855 139.556 492.039 141.614 490.433 143.223C488.826 144.832 486.768 145.644 484.219 145.644L127.909 145.644Z" fill="#3A5CB7" stroke="#3A5CB7"/>
</svg>
