<svg width="512" height="512" viewBox="0 0 512 512" fill="none" xmlns="http://www.w3.org/2000/svg">
<path d="M418.444 353.917H407.842V368.931H418.444C461.613 368.931 496.735 404.052 496.735 447.222V512H511.749V447.222C511.749 395.773 469.892 353.917 418.444 353.917Z" fill="#3A5CB7"/>
<path d="M361.603 313.596C391.662 294.492 411.652 260.896 411.652 222.717V162.659C411.652 129.363 396.605 98.4762 370.369 77.9171L361.108 89.7356C383.687 107.43 396.637 134.009 396.637 162.66V193.056L385.018 171.571C376.202 155.268 359.213 145.142 340.68 145.142H310.765V160.156H340.68C353.693 160.156 365.622 167.267 371.811 178.712L396.614 224.573C395.621 274.774 354.481 315.308 304.047 315.308C252.992 315.308 211.456 273.772 211.456 222.717V175.171H235.48V160.156H295.751V145.142H235.48V100.461C236.459 99.376 237.484 98.281 238.578 97.1869C256.056 79.6988 279.307 70.0684 304.047 70.0684C320.022 70.0684 335.769 74.2015 349.583 82.0191L356.979 68.9513C340.914 59.8605 322.61 55.0538 304.047 55.0538C278.711 55.0538 254.722 63.7493 235.48 79.7209V0H195.941V15.0147H220.465V160.156H164.41V196.442L77.3253 160.156H15.2647V119.617H0.25V175.171H74.3223L179.425 218.964V175.171H196.442V222.717C196.442 260.897 216.431 294.492 246.49 313.596V353.917H189.649C138.201 353.917 96.3438 395.773 96.3438 447.222V455.108H111.359V447.222C111.359 404.053 146.48 368.931 189.649 368.931H246.814C249.86 397.823 274.363 420.411 304.047 420.411C333.731 420.411 358.234 397.823 361.28 368.931H392.827V353.917H361.603V313.596ZM346.588 362.854C346.588 386.312 327.505 405.396 304.047 405.396C280.589 405.396 261.505 386.312 261.505 362.854V321.548C274.561 327.19 288.944 330.323 304.047 330.323C319.149 330.323 333.532 327.19 346.588 321.548V362.854Z" fill="#3A5CB7"/>
<path d="M111.358 470.123H96.3438V512H111.358V470.123Z" fill="#3A5CB7"/>
<path d="M439.68 471.961H424.665V512H439.68V471.961Z" fill="#3A5CB7"/>
<path d="M183.429 471.961H168.414V512H183.429V471.961Z" fill="#3A5CB7"/>
<path d="M15.2647 15.0147H180.926V0H0.25V104.602H15.2647V15.0147Z" fill="#3A5CB7"/>
<path d="M121.869 57.0557H45.7949V72.0703H121.869V57.0557Z" fill="#3A5CB7"/>
<path d="M185.932 57.0557H136.884V72.0703H185.932V57.0557Z" fill="#3A5CB7"/>
<path d="M106.855 87.085H45.7949V102.1H106.855V87.085Z" fill="#3A5CB7"/>
<path d="M166.913 87.085H151.898V102.1H166.913V87.085Z" fill="#3A5CB7"/>
<path d="M136.884 87.085H121.869V102.1H136.884V87.085Z" fill="#3A5CB7"/>
<path d="M355.98 127.814L368.434 119.427C365.345 114.84 361.755 110.57 357.764 106.736L347.362 117.563C350.586 120.661 353.485 124.109 355.98 127.814Z" fill="#3A5CB7"/>
<path d="M336.777 109.363L344.658 96.5823C336.242 91.3922 327.052 87.9078 317.341 86.2231L314.775 101.017C322.594 102.373 329.996 105.182 336.777 109.363Z" fill="#3A5CB7"/>
<path d="M424.928 384.276L423.4 399.213C436.873 400.591 449.241 407.685 457.333 418.675L469.423 409.771C458.824 395.377 442.606 386.085 424.928 384.276Z" fill="#3A5CB7"/>
<path d="M463.546 430.039C465.091 434.08 466.081 438.318 466.49 442.638L481.438 441.225C480.902 435.553 479.601 429.985 477.571 424.677L463.546 430.039Z" fill="#3A5CB7"/>
</svg>
