<?xml version="1.0" encoding="iso-8859-1"?>
<!-- Generator: Adobe Illustrator 19.0.0, SVG Export Plug-In . SVG Version: 6.00 Build 0)  -->
<svg xmlns="http://www.w3.org/2000/svg" xmlns:xlink="http://www.w3.org/1999/xlink" version="1.1" id="Layer_1" x="0px" y="0px" viewBox="0 0 511.5 511.5" style="enable-background:new 0 0 511.5 511.5;" xml:space="preserve" width="512" height="512">
<g>
	<path d="M418.036,353.571h-10.592v15h10.592c43.127,0,78.214,35.087,78.214,78.214V511.5h15v-64.715   C511.25,395.387,469.434,353.571,418.036,353.571z"/>
	<path d="M361.25,313.29c30.03-19.086,50-52.649,50-90.79v-60c0-33.263-15.032-64.12-41.242-84.659l-9.252,11.807   c22.557,17.677,35.494,44.23,35.494,72.853v30.366l-11.608-21.464C375.835,155.116,358.862,145,340.348,145h-29.886v15h29.886   c13,0,24.917,7.104,31.1,18.537l24.779,45.817C395.235,274.506,354.135,315,303.75,315c-51.005,0-92.5-41.495-92.5-92.5V175h24v-15   h60.212v-15H235.25v-44.637c0.978-1.084,2.002-2.178,3.095-3.271C255.806,79.621,279.034,70,303.75,70   c15.96,0,31.691,4.129,45.492,11.939l7.389-13.055C340.581,59.802,322.295,55,303.75,55c-25.311,0-49.277,8.687-68.5,24.643V0   h-39.5v15h24.5v145h-56v36.25l-87-36.25h-62v-40.5h-15V175h74l105,43.75V175h17v47.5c0,38.142,19.97,71.704,50,90.79v40.281   h-56.786c-51.398,0-93.214,41.815-93.214,93.214v7.879h15v-7.879c0-43.127,35.087-78.214,78.214-78.214h57.109   C249.616,397.434,274.095,420,303.75,420s54.134-22.566,57.177-51.429h31.517v-15H361.25V313.29z M346.25,362.5   c0,23.435-19.065,42.5-42.5,42.5s-42.5-19.065-42.5-42.5v-41.266c13.043,5.636,27.412,8.766,42.5,8.766s29.457-3.13,42.5-8.766   V362.5z"/>
	<rect x="96.25" y="469.664" width="15" height="41.836"/>
	<rect x="424.25" y="471.5" width="15" height="40"/>
	<rect x="168.25" y="471.5" width="15" height="40"/>
	<polygon points="15.25,15 180.75,15 180.75,0 0.25,0 0.25,104.5 15.25,104.5  "/>
	<rect x="45.75" y="57" width="76" height="15"/>
	<rect x="136.75" y="57" width="49" height="15"/>
	<rect x="45.75" y="87" width="61" height="15"/>
	<rect x="151.75" y="87" width="15" height="15"/>
	<rect x="121.75" y="87" width="15" height="15"/>
	<path d="M355.632,127.689l12.442-8.379c-3.086-4.582-6.672-8.848-10.659-12.678l-10.392,10.816   C350.244,120.543,353.14,123.988,355.632,127.689z"/>
	<path d="M336.448,109.256l7.873-12.768c-8.407-5.185-17.588-8.666-27.29-10.349l-2.563,14.779   C322.279,102.273,329.674,105.079,336.448,109.256z"/>
	<path d="M424.513,383.901l-1.526,14.922c13.459,1.377,25.815,8.464,33.899,19.443l12.079-8.895   C458.376,394.991,442.174,385.708,424.513,383.901z"/>
	<path d="M463.093,429.619c1.544,4.037,2.533,8.271,2.941,12.587l14.934-1.412c-0.536-5.666-1.836-11.229-3.864-16.532   L463.093,429.619z"/>
</g>















</svg>
