<svg width="60" height="60" viewBox="0 0 60 60" fill="none" xmlns="http://www.w3.org/2000/svg">
<path d="M38.914 0H6.5V60H53.5V14.586L38.914 0ZM39.5 3.414L50.086 14H39.5V3.414ZM8.5 58V2H37.5V16H51.5V58H8.5Z" fill="#3A5CB7"/>
<path d="M16.5 17H25.5C26.052 17 26.5 16.553 26.5 16C26.5 15.447 26.052 15 25.5 15H16.5C15.948 15 15.5 15.447 15.5 16C15.5 16.553 15.948 17 16.5 17Z" fill="#3A5CB7"/>
<path d="M33.5 37H16.5C15.948 37 15.5 37.447 15.5 38C15.5 38.553 15.948 39 16.5 39H33.5C34.052 39 34.5 38.553 34.5 38C34.5 37.447 34.052 37 33.5 37Z" fill="#3A5CB7"/>
<path d="M43.5 30H36.5C35.948 30 35.5 30.447 35.5 31C35.5 31.553 35.948 32 36.5 32H43.5C44.052 32 44.5 31.553 44.5 31C44.5 30.447 44.052 30 43.5 30Z" fill="#3A5CB7"/>
<path d="M16.5 25H21.5C22.052 25 22.5 24.553 22.5 24C22.5 23.447 22.052 23 21.5 23H16.5C15.948 23 15.5 23.447 15.5 24C15.5 24.553 15.948 25 16.5 25Z" fill="#3A5CB7"/>
<path d="M31.5 25H38.5C39.052 25 39.5 24.553 39.5 24C39.5 23.447 39.052 23 38.5 23H31.5C30.948 23 30.5 23.447 30.5 24C30.5 24.553 30.948 25 31.5 25Z" fill="#3A5CB7"/>
<path d="M25.5 24C25.5 24.26 25.61 24.5199 25.79 24.7099C25.98 24.8899 26.24 25 26.5 25C26.76 25 27.02 24.8899 27.21 24.7099C27.39 24.5199 27.5 24.26 27.5 24C27.5 23.739 27.39 23.479 27.21 23.29C26.84 22.92 26.17 22.92 25.79 23.29C25.61 23.479 25.5 23.739 25.5 24Z" fill="#3A5CB7"/>
<path d="M21.5 30C20.948 30 20.5 30.447 20.5 31C20.5 31.553 20.948 32 21.5 32H31.5C32.052 32 32.5 31.553 32.5 31C32.5 30.447 32.052 30 31.5 30H21.5Z" fill="#3A5CB7"/>
<path d="M16.5 32C16.76 32 17.02 31.8899 17.21 31.7099C17.39 31.5199 17.5 31.26 17.5 31C17.5 30.739 17.39 30.479 17.21 30.29C16.84 29.92 16.16 29.92 15.79 30.29C15.61 30.479 15.5 30.729 15.5 31C15.5 31.26 15.61 31.5199 15.79 31.7099C15.98 31.8899 16.24 32 16.5 32Z" fill="#3A5CB7"/>
<path d="M43.5 44H36.5C35.948 44 35.5 44.447 35.5 45C35.5 45.553 35.948 46 36.5 46H43.5C44.052 46 44.5 45.553 44.5 45C44.5 44.447 44.052 44 43.5 44Z" fill="#3A5CB7"/>
<path d="M31.5 44H21.5C20.948 44 20.5 44.447 20.5 45C20.5 45.553 20.948 46 21.5 46H31.5C32.052 46 32.5 45.553 32.5 45C32.5 44.447 32.052 44 31.5 44Z" fill="#3A5CB7"/>
<path d="M15.79 44.2899C15.61 44.4699 15.5 44.7289 15.5 44.9999C15.5 45.2699 15.6 45.5199 15.79 45.7099C15.98 45.8899 16.24 45.9999 16.5 45.9999C16.77 45.9999 17.02 45.8899 17.21 45.7099C17.39 45.5199 17.5 45.2599 17.5 44.9999C17.5 44.7289 17.39 44.4789 17.21 44.2999C16.84 43.9199 16.17 43.9199 15.79 44.2899Z" fill="#3A5CB7"/>
<path d="M42.79 23.29C42.61 23.479 42.5 23.739 42.5 24C42.5 24.26 42.61 24.5199 42.79 24.7099C42.98 24.8899 43.24 25 43.5 25C43.76 25 44.02 24.8899 44.21 24.7099C44.4 24.5199 44.5 24.26 44.5 24C44.5 23.739 44.4 23.479 44.21 23.29C43.83 22.92 43.17 22.92 42.79 23.29Z" fill="#3A5CB7"/>
<path d="M39.21 38.7099C39.39 38.5199 39.5 38.26 39.5 38C39.5 37.739 39.39 37.479 39.21 37.29C38.83 36.92 38.16 36.92 37.79 37.29C37.61 37.479 37.5 37.739 37.5 38C37.5 38.26 37.61 38.5199 37.79 38.7099C37.98 38.8989 38.23 39 38.5 39C38.77 39 39.02 38.8899 39.21 38.7099Z" fill="#3A5CB7"/>
<path d="M42.79 37.29C42.61 37.479 42.5 37.739 42.5 38C42.5 38.26 42.61 38.5199 42.79 38.7099C42.98 38.8899 43.23 39 43.5 39C43.77 39 44.02 38.8899 44.21 38.7099C44.39 38.5199 44.5 38.26 44.5 38C44.5 37.739 44.39 37.479 44.21 37.29C43.84 36.92 43.16 36.92 42.79 37.29Z" fill="#3A5CB7"/>
</svg>
