<?xml version="1.0" encoding="iso-8859-1"?>
<!-- Generator: Adobe Illustrator 21.0.0, SVG Export Plug-In . SVG Version: 6.00 Build 0)  -->
<svg xmlns="http://www.w3.org/2000/svg" xmlns:xlink="http://www.w3.org/1999/xlink" version="1.1" id="Capa_1" x="0px" y="0px" viewBox="0 0 512 512" style="enable-background:new 0 0 512 512;" xml:space="preserve" width="512" height="512">
<g>
	<path d="M448.333,424.5H15V192c0-4.142-3.358-7.5-7.5-7.5S0,187.858,0,192v240c0,4.142,3.358,7.5,7.5,7.5h440.833   c4.142,0,7.5-3.358,7.5-7.5S452.476,424.5,448.333,424.5z"/>
	<path d="M504.5,72.5H7.5C3.358,72.5,0,75.858,0,80v80.5c0,4.142,3.358,7.5,7.5,7.5s7.5-3.358,7.5-7.5v-73h482v337h-16.667   c-4.142,0-7.5,3.358-7.5,7.5s3.358,7.5,7.5,7.5H504.5c4.142,0,7.5-3.358,7.5-7.5V80C512,75.858,508.642,72.5,504.5,72.5z"/>
	<path d="M352,102.5H57.5C42.336,102.5,30,114.836,30,130v252c0,15.164,12.336,27.5,27.5,27.5h397c15.164,0,27.5-12.336,27.5-27.5   V130c0-15.164-12.336-27.5-27.5-27.5h-70.75c-4.142,0-7.5,3.358-7.5,7.5s3.358,7.5,7.5,7.5h30.75c6.893,0,12.5,5.607,12.5,12.5   c0,15.164,12.336,27.5,27.5,27.5c6.893,0,12.5,5.607,12.5,12.5v172c0,6.893-5.607,12.5-12.5,12.5c-15.164,0-27.5,12.336-27.5,27.5   c0,6.893-5.607,12.5-12.5,12.5h-317c-6.893,0-12.5-5.607-12.5-12.5c0-15.164-12.336-27.5-27.5-27.5c-6.893,0-12.5-5.607-12.5-12.5   V170c0-6.893,5.607-12.5,12.5-12.5c15.164,0,27.5-12.336,27.5-27.5c0-6.893,5.607-12.5,12.5-12.5H352c4.142,0,7.5-3.358,7.5-7.5   S356.142,102.5,352,102.5z M454.5,142.5c-6.893,0-12.5-5.607-12.5-12.5c0-4.498-1.086-8.748-3.009-12.5H454.5   c6.893,0,12.5,5.607,12.5,12.5v15.509C463.248,143.586,458.998,142.5,454.5,142.5z M442,382c0-6.893,5.607-12.5,12.5-12.5   c4.498,0,8.748-1.086,12.5-3.009V382c0,6.893-5.607,12.5-12.5,12.5h-15.509C440.914,390.748,442,386.498,442,382z M57.5,369.5   c6.893,0,12.5,5.607,12.5,12.5c0,4.498,1.086,8.748,3.009,12.5H57.5c-6.893,0-12.5-5.607-12.5-12.5v-15.509   C48.752,368.414,53.002,369.5,57.5,369.5z M70,130c0,6.893-5.607,12.5-12.5,12.5c-4.498,0-8.748,1.086-12.5,3.009V130   c0-6.893,5.607-12.5,12.5-12.5h15.509C71.086,121.252,70,125.502,70,130z"/>
	<path d="M226.5,315.5c0-7.459-6.157-12.687-6.804-14.92c-0.65-2.435,2.149-9.922-1.565-16.341   c-3.695-6.386-11.729-7.862-13.367-9.5c-1.664-1.664-3.095-9.662-9.501-13.368c-6.452-3.733-13.865-0.91-16.337-1.565   C176.686,259.157,171.456,253,164,253c-7.459,0-12.687,6.157-14.92,6.804c-2.437,0.649-9.929-2.145-16.341,1.565   c-6.386,3.695-7.862,11.729-9.5,13.367c-1.664,1.664-9.662,3.095-13.368,9.501c-3.74,6.465-0.906,13.872-1.565,16.337   c-0.648,2.239-6.805,7.469-6.805,14.924c0,7.459,6.157,12.687,6.804,14.92c0.65,2.435-2.149,9.922,1.565,16.341   c3.695,6.386,11.729,7.862,13.367,9.5c1.664,1.664,3.095,9.662,9.501,13.368c6.451,3.732,13.866,0.91,16.337,1.565   C151.314,371.843,156.544,378,164,378c7.459,0,12.687-6.157,14.92-6.804c2.451-0.651,9.922,2.151,16.341-1.565   c6.386-3.695,7.862-11.729,9.5-13.367c1.664-1.664,9.662-3.095,13.368-9.501c3.74-6.465,0.906-13.872,1.565-16.337   C220.343,328.186,226.5,322.956,226.5,315.5z M205.205,326.548c-1.372,5.134,0.119,10.138-0.128,12.68   c-2.008,1.458-7.223,2.73-10.921,6.429c-3.791,3.791-4.896,8.811-6.428,10.92c-2.525,0.246-7.594-1.232-12.68,0.128   c-5.269,1.409-8.741,5.341-11.047,6.25c-2.204-0.869-5.911-4.877-11.048-6.25c-5.052-1.35-10.206,0.112-12.68-0.128   c-1.458-2.008-2.73-7.223-6.429-10.921c-3.791-3.791-8.811-4.896-10.92-6.428c-0.25-2.567,1.235-7.577-0.128-12.68   c-1.409-5.269-5.341-8.741-6.25-11.047c0.869-2.204,4.877-5.911,6.25-11.048c1.372-5.134-0.119-10.138,0.128-12.68   c2.008-1.458,7.223-2.73,10.921-6.429c3.791-3.791,4.896-8.811,6.428-10.92c2.49-0.247,7.595,1.232,12.68-0.128   c5.269-1.409,8.741-5.341,11.047-6.25c2.204,0.869,5.911,4.877,11.048,6.25c5.174,1.383,10.129-0.128,12.68,0.128   c1.458,2.008,2.73,7.223,6.429,10.921c3.791,3.791,8.811,4.896,10.92,6.428c0.25,2.567-1.235,7.577,0.128,12.68   c1.409,5.269,5.341,8.741,6.25,11.047C210.586,317.704,206.577,321.411,205.205,326.548z"/>
	<path d="M320,165.5c4.142,0,7.5-3.358,7.5-7.5s-3.358-7.5-7.5-7.5H192c-4.142,0-7.5,3.358-7.5,7.5s3.358,7.5,7.5,7.5H320z"/>
	<path d="M372,284.5c4.142,0,7.5-3.358,7.5-7.5s-3.358-7.5-7.5-7.5h-97c-4.142,0-7.5,3.358-7.5,7.5s3.358,7.5,7.5,7.5H372z"/>
	<path d="M275.5,323.5h97c4.142,0,7.5-3.358,7.5-7.5s-3.358-7.5-7.5-7.5h-97c-4.142,0-7.5,3.358-7.5,7.5S271.358,323.5,275.5,323.5z   "/>
	<path d="M386.5,184.5h-261c-4.142,0-7.5,3.358-7.5,7.5s3.358,7.5,7.5,7.5h261c4.142,0,7.5-3.358,7.5-7.5S390.642,184.5,386.5,184.5   z"/>
	<path d="M394,226c0-4.142-3.358-7.5-7.5-7.5h-261c-4.142,0-7.5,3.358-7.5,7.5s3.358,7.5,7.5,7.5h261   C390.642,233.5,394,230.142,394,226z"/>
</g>















</svg>
