<svg width="2175" height="560" viewBox="0 0 2175 560" fill="none" xmlns="http://www.w3.org/2000/svg">
<path d="M121.879 382.532C116.992 382.532 113.449 387.106 114.578 391.802C114.859 392.95 115 394.153 115 395.341C114.988 403.603 108.262 410.333 100 410.341C91.7383 410.333 85.0195 403.603 85 395.341C85.0195 387.083 91.7383 380.36 100 380.341C104.141 380.341 107.5 376.981 107.5 372.841C107.5 368.712 104.141 365.341 100 365.341C83.4492 365.341 70 378.731 70 395.341C70 411.938 83.4375 425.341 100 425.341C116.531 425.341 130 411.97 130 395.341C130 392.962 129.719 390.583 129.16 388.271C128.34 384.892 125.352 382.532 121.879 382.532V382.532Z" fill="black"/>
<path d="M347.109 382.739C343.09 383.712 340.609 387.782 341.578 391.802C341.859 392.95 342 394.142 342 395.341C341.98 403.603 335.25 410.333 327 410.341C318.738 410.333 312.012 403.603 312 395.341C312.012 387.083 318.738 380.36 327 380.341C331.129 380.341 334.5 376.981 334.5 372.841C334.5 368.712 331.129 365.341 327 365.341C318.98 365.341 311.449 368.462 305.789 374.13C300.121 379.79 297 387.333 297 395.341C297 411.907 310.402 425.341 327 425.341C343.574 425.341 356.98 411.938 357 395.341C357 392.962 356.719 390.583 356.16 388.282C355.172 384.192 351.109 381.778 347.109 382.739V382.739Z" fill="black"/>
<path d="M452.109 382.739C448.09 383.712 445.609 387.782 446.578 391.802C446.859 392.95 447 394.142 447 395.341C446.98 403.603 440.25 410.333 432 410.341C423.738 410.333 417.012 403.603 417 395.341C417.012 387.083 423.738 380.36 432 380.341C436.129 380.341 439.5 376.981 439.5 372.841C439.5 368.712 436.129 365.341 432 365.341C415.406 365.341 402 378.778 402 395.341C402 411.907 415.402 425.341 432 425.341C448.574 425.341 461.98 411.938 462 395.341C462 392.962 461.719 390.583 461.16 388.282C460.172 384.192 456.109 381.778 452.109 382.739V382.739Z" fill="black"/>
<path d="M489.5 335.34C477.062 335.34 270.047 335.34 263.496 335.34C263.496 327.09 263.496 127.895 263.5 116.915C263.5 108.782 269.023 101.782 276.934 99.8912C283.742 98.2623 288.5 92.2623 288.5 85.2974V70.0123C288.5 65.6138 286.578 61.4498 283.23 58.5865C279.898 55.7388 275.516 54.5006 271.188 55.1842C256.66 57.4849 243.332 64.9303 233.66 76.1451C223.883 87.481 218.5 101.962 218.5 116.915H198.496C167.953 116.915 142.664 139.856 138.965 169.415H131.008C113.34 169.415 98.2969 181.45 94.4219 198.688L79.9961 262.833H36C20.8359 262.833 8.5 275.169 8.5 290.333V359.344C3.48047 361.774 0 366.903 0 372.84V387.84C0 396.114 6.73047 402.84 15 402.84H40.4844C44.1914 432.395 69.457 455.34 100 455.34C130.543 455.34 155.812 432.395 159.516 402.84H267.484C271.191 432.395 296.457 455.34 327 455.34C349.566 455.34 369.258 442.813 379.5 424.348C389.742 442.809 409.434 455.34 432 455.34C462.574 455.34 487.863 432.344 491.527 402.747C502.984 401.715 512 392.063 512 380.34V357.84C512 345.434 501.906 335.34 489.5 335.34V335.34ZM273.5 70.0123L273.445 85.3013C258.758 88.8131 248.5 101.813 248.5 116.915H233.5C233.5 93.7857 250.711 73.6178 273.5 70.0123ZM40.4766 387.84H15V372.84H44.3867C42.4336 377.641 41.1211 382.676 40.4766 387.84ZM100 440.34C75.1875 440.34 55 420.153 55 395.34C55 370.329 75.4727 350.34 100 350.34C124.812 350.34 145 370.528 145 395.34C145 420.153 124.812 440.34 100 440.34ZM159.516 387.84C155.809 358.286 130.543 335.34 100 335.34C81.7852 335.34 64.5859 343.688 53.2188 357.84H23.5V290.333C23.5 283.438 29.1055 277.833 36 277.833H85.9961C89.5078 277.833 92.5469 275.399 93.3164 271.977L109.055 201.977C111.383 191.637 120.41 184.415 131.008 184.415H145.887C145.926 184.415 145.961 184.422 146 184.422C150.152 184.422 153.5 181.016 153.5 176.911C153.5 152.122 173.664 131.915 198.496 131.915H248.496V169.411H176C171.859 169.411 168.5 172.782 168.5 176.911C168.5 181.051 171.859 184.422 176 184.422H248.5V342.84C248.5 346.985 251.855 350.34 256 350.34H287.375C276.664 359.782 269.348 372.973 267.484 387.84H159.516ZM327 440.34C302.188 440.34 282 420.153 282 395.34C282 370.528 302.184 350.34 326.996 350.34H327C351.812 350.34 372 370.528 372 395.34C372 420.157 351.812 440.34 327 440.34V440.34ZM379.5 366.336C376.145 360.29 371.773 354.883 366.621 350.34H392.375C387.223 354.883 382.855 360.29 379.5 366.336ZM432 440.34C407.188 440.34 387 420.153 387 395.34C387 370.528 407.184 350.34 431.996 350.34H432C456.812 350.34 477 370.528 477 395.34C477 420.157 456.812 440.34 432 440.34V440.34ZM497 380.34C497 383.79 494.656 386.696 491.48 387.567C489.559 372.813 482.266 359.727 471.621 350.34H489.5C493.637 350.34 497 353.704 497 357.84V380.34Z" fill="black"/>
<path d="M236 357.841H208.539L208.543 206.915C208.543 202.771 205.184 199.415 201.043 199.415H129.219C125.711 199.415 122.672 201.845 121.902 205.271L107.641 268.688C107.141 270.911 107.68 273.239 109.102 275.017C110.524 276.798 112.68 277.833 114.957 277.833H193.539V357.841H181.781C170.676 333.7 149.52 315.751 124.25 308.657V300.329C124.25 296.2 120.879 292.829 116.75 292.829C112.621 292.829 109.262 296.188 109.25 300.31V300.329V314.548C109.25 318.091 111.762 321.181 115.231 321.899C139.75 326.962 160.68 344.661 169.852 368.079C170.961 370.931 173.77 372.841 176.828 372.841H236C240.141 372.841 243.5 369.485 243.5 365.341C243.5 361.2 240.141 357.841 236 357.841ZM193.543 262.833H124.332L135.219 214.415H193.543V262.833Z" fill="black"/>
<rect x="290" y="125" width="778" height="190" fill="white" stroke="black" stroke-width="14"/>
<rect x="297" y="132" width="587" height="176" fill="#E4D01B"/>
<rect x="297" y="132" width="587" height="176" stroke="black"/>
<path d="M1343.44 188.175H1333.18V169H1277.05V188.229H1266.74L1266.69 160.567H1273.08C1276.44 156.772 1279.11 151.687 1281.08 145.313C1283.09 138.904 1284.34 131.886 1284.84 124.259L1286.56 90.7969H1333.34V160.567H1343.55L1343.44 188.175ZM1284.84 160.567H1322.97V99.2832H1296.5L1295.37 122.271C1294.9 131.259 1293.7 138.922 1291.77 145.26C1289.87 151.598 1287.56 156.7 1284.84 160.567ZM1351.6 139.405C1351.6 133.712 1352.71 128.591 1354.93 124.044C1357.19 119.496 1360.3 115.987 1364.28 113.517C1368.29 111.046 1372.85 109.811 1377.97 109.811C1385.89 109.811 1392.28 112.55 1397.15 118.028C1402.06 123.507 1404.51 130.794 1404.51 139.889V140.587C1404.51 146.244 1403.42 151.329 1401.23 155.841C1399.08 160.317 1395.99 163.808 1391.94 166.314C1387.93 168.821 1383.31 170.074 1378.08 170.074C1370.2 170.074 1363.81 167.335 1358.91 161.856C1354.04 156.378 1351.6 149.127 1351.6 140.104V139.405ZM1361.59 140.587C1361.59 147.032 1363.08 152.206 1366.05 156.109C1369.06 160.012 1373.07 161.964 1378.08 161.964C1383.13 161.964 1387.14 159.994 1390.11 156.056C1393.09 152.081 1394.57 146.531 1394.57 139.405C1394.57 133.032 1393.05 127.875 1390.01 123.937C1387 119.962 1382.99 117.975 1377.97 117.975C1373.07 117.975 1369.11 119.926 1366.1 123.829C1363.1 127.732 1361.59 133.318 1361.59 140.587ZM1464.5 169H1454.57V119.103H1427.82V169H1417.83V110.885H1464.5V169ZM1499.47 154.444L1513 110.885H1523.64L1500.27 177.97C1496.66 187.638 1490.91 192.472 1483.03 192.472L1481.15 192.311L1477.45 191.612V183.556L1480.13 183.771C1483.5 183.771 1486.11 183.09 1487.97 181.729C1489.87 180.369 1491.43 177.88 1492.65 174.264L1494.85 168.355L1474.12 110.885H1484.97L1499.47 154.444ZM1555.11 161.964C1558.66 161.964 1561.76 160.89 1564.41 158.741C1567.06 156.593 1568.52 153.907 1568.81 150.685H1578.21C1578.03 154.015 1576.88 157.184 1574.77 160.191C1572.66 163.199 1569.83 165.598 1566.29 167.389C1562.78 169.179 1559.05 170.074 1555.11 170.074C1547.2 170.074 1540.9 167.442 1536.21 162.179C1531.55 156.879 1529.22 149.646 1529.22 140.479V138.814C1529.22 133.157 1530.26 128.126 1532.34 123.722C1534.42 119.317 1537.39 115.898 1541.26 113.463C1545.16 111.028 1549.76 109.811 1555.06 109.811C1561.58 109.811 1566.98 111.762 1571.28 115.665C1575.61 119.568 1577.92 124.635 1578.21 130.865H1568.81C1568.52 127.105 1567.09 124.026 1564.51 121.627C1561.97 119.192 1558.82 117.975 1555.06 117.975C1550.01 117.975 1546.09 119.801 1543.3 123.453C1540.54 127.07 1539.16 132.315 1539.16 139.19V141.07C1539.16 147.766 1540.54 152.923 1543.3 156.539C1546.05 160.156 1549.99 161.964 1555.11 161.964ZM1607.48 144.239H1600.23V169H1590.24V110.885H1600.23V135.484H1606.73L1626.28 110.885H1638.31L1615.32 138.814L1640.25 169H1627.62L1607.48 144.239ZM1694.17 144.239H1686.92V169H1676.93V110.885H1686.92V135.484H1693.42L1712.97 110.885H1725L1702.01 138.814L1726.93 169H1714.31L1694.17 144.239ZM1304.98 284.841L1324.75 239.885H1337.15V298H1327.22V255.729L1308.42 298H1301.54L1282.37 254.816V298H1272.43V239.885H1285.32L1304.98 284.841ZM1377.28 299.074C1369.4 299.074 1362.99 296.496 1358.05 291.34C1353.11 286.148 1350.64 279.219 1350.64 270.554V268.728C1350.64 262.963 1351.73 257.824 1353.91 253.312C1356.13 248.765 1359.21 245.22 1363.15 242.678C1367.12 240.1 1371.42 238.811 1376.04 238.811C1383.6 238.811 1389.47 241.299 1393.66 246.276C1397.85 251.254 1399.94 258.379 1399.94 267.653V271.789H1360.57C1360.72 277.518 1362.38 282.155 1365.57 285.7C1368.79 289.209 1372.87 290.964 1377.81 290.964C1381.32 290.964 1384.29 290.248 1386.73 288.815C1389.16 287.383 1391.29 285.485 1393.12 283.122L1399.19 287.849C1394.32 295.332 1387.02 299.074 1377.28 299.074ZM1376.04 246.975C1372.03 246.975 1368.66 248.443 1365.94 251.379C1363.22 254.279 1361.54 258.361 1360.89 263.625H1390.01V262.873C1389.72 257.824 1388.36 253.921 1385.92 251.164C1383.49 248.371 1380.19 246.975 1376.04 246.975ZM1457.84 272.756H1450.86V298H1440.92V272.756H1433.94L1417.67 298H1405.1L1425.88 267.922L1407.09 239.885H1419.12L1434.1 263.947H1440.92V239.885H1450.86V263.947H1457.63L1472.72 239.885H1484.75L1465.9 267.976L1486.69 298H1474.12L1457.84 272.756ZM1495.23 289.89L1498.66 285.646C1502.53 280.633 1504.73 273.114 1505.27 263.088L1506.18 239.885H1543.62V289.89H1551.08V315.08H1541.15V298H1500.6V315.08H1490.66L1490.71 289.89H1495.23ZM1506.99 289.89H1533.68V249.069H1515.8L1515.21 262.927C1514.6 274.493 1511.86 283.48 1506.99 289.89ZM1581.11 283.444L1594.64 239.885H1605.28L1581.92 306.97C1578.3 316.638 1572.55 321.472 1564.67 321.472L1562.79 321.311L1559.09 320.612V312.556L1561.77 312.771C1565.14 312.771 1567.75 312.09 1569.62 310.729C1571.51 309.369 1573.07 306.88 1574.29 303.264L1576.49 297.355L1555.76 239.885H1566.61L1581.11 283.444ZM1661.68 298H1651.74V273.186H1625.04V298H1615.05V239.885H1625.04V265.075H1651.74V239.885H1661.68V298ZM1713.56 298C1712.99 296.854 1712.52 294.813 1712.16 291.877C1707.54 296.675 1702.03 299.074 1695.62 299.074C1689.89 299.074 1685.18 297.463 1681.5 294.24C1677.84 290.982 1676.02 286.864 1676.02 281.887C1676.02 275.835 1678.31 271.145 1682.89 267.814C1687.51 264.449 1693.99 262.766 1702.33 262.766H1712V258.2C1712 254.727 1710.96 251.97 1708.89 249.929C1706.81 247.852 1703.75 246.813 1699.7 246.813C1696.16 246.813 1693.19 247.709 1690.79 249.499C1688.39 251.289 1687.19 253.456 1687.19 255.998H1677.2C1677.2 253.098 1678.22 250.305 1680.26 247.619C1682.34 244.898 1685.13 242.749 1688.64 241.174C1692.18 239.598 1696.07 238.811 1700.29 238.811C1706.99 238.811 1712.24 240.493 1716.03 243.859C1719.83 247.189 1721.8 251.791 1721.94 257.663V284.411C1721.94 289.746 1722.62 293.99 1723.98 297.141V298H1713.56ZM1697.07 290.427C1700.19 290.427 1703.14 289.621 1705.93 288.01C1708.73 286.398 1710.75 284.304 1712 281.726V269.802H1704.21C1692.04 269.802 1685.95 273.365 1685.95 280.49C1685.95 283.605 1686.99 286.04 1689.07 287.795C1691.15 289.549 1693.81 290.427 1697.07 290.427ZM1786.61 269.587C1786.61 278.431 1784.58 285.557 1780.54 290.964C1776.49 296.371 1771.01 299.074 1764.1 299.074C1757.05 299.074 1751.5 296.836 1747.45 292.36V320.344H1737.52V239.885H1746.59L1747.08 246.33C1751.12 241.317 1756.74 238.811 1763.94 238.811C1770.92 238.811 1776.44 241.442 1780.48 246.706C1784.57 251.97 1786.61 259.292 1786.61 268.674V269.587ZM1776.67 268.459C1776.67 261.906 1775.27 256.732 1772.48 252.937C1769.69 249.141 1765.86 247.243 1760.99 247.243C1754.97 247.243 1750.46 249.911 1747.45 255.246V283.015C1750.42 288.314 1754.97 290.964 1761.09 290.964C1765.86 290.964 1769.63 289.084 1772.43 285.324C1775.26 281.529 1776.67 275.907 1776.67 268.459ZM1796.65 268.405C1796.65 262.712 1797.76 257.591 1799.98 253.044C1802.24 248.496 1805.35 244.987 1809.33 242.517C1813.34 240.046 1817.9 238.811 1823.02 238.811C1830.94 238.811 1837.33 241.55 1842.2 247.028C1847.1 252.507 1849.56 259.794 1849.56 268.889V269.587C1849.56 275.244 1848.46 280.329 1846.28 284.841C1844.13 289.317 1841.03 292.808 1836.99 295.314C1832.98 297.821 1828.36 299.074 1823.13 299.074C1815.25 299.074 1808.86 296.335 1803.96 290.856C1799.09 285.378 1796.65 278.127 1796.65 269.104V268.405ZM1806.64 269.587C1806.64 276.032 1808.13 281.206 1811.1 285.109C1814.11 289.012 1818.12 290.964 1823.13 290.964C1828.18 290.964 1832.19 288.994 1835.16 285.056C1838.13 281.081 1839.62 275.531 1839.62 268.405C1839.62 262.032 1838.1 256.875 1835.05 252.937C1832.05 248.962 1828.04 246.975 1823.02 246.975C1818.12 246.975 1814.16 248.926 1811.15 252.829C1808.15 256.732 1806.64 262.318 1806.64 269.587ZM1857.67 289.89L1861.1 285.646C1864.97 280.633 1867.17 273.114 1867.71 263.088L1868.62 239.885H1906.06V289.89H1913.53V315.08H1903.59V298H1863.04V315.08H1853.1L1853.16 289.89H1857.67ZM1869.43 289.89H1896.12V249.069H1878.24L1877.65 262.927C1877.04 274.493 1874.3 283.48 1869.43 289.89ZM1972.02 298H1962.08V273.186H1935.39V298H1925.4V239.885H1935.39V265.075H1962.08V239.885H1972.02V298ZM1998.87 259.919H2013.97C2020.55 259.991 2025.76 261.709 2029.6 265.075C2033.43 268.441 2035.34 273.007 2035.34 278.771C2035.34 284.572 2033.37 289.227 2029.43 292.736C2025.5 296.245 2020.2 298 2013.54 298H1988.94V239.885H1998.87V259.919ZM2056.08 298H2046.08V239.885H2056.08V298ZM1998.87 268.029V289.89H2013.64C2017.37 289.89 2020.25 288.941 2022.29 287.043C2024.33 285.109 2025.35 282.478 2025.35 279.147C2025.35 275.925 2024.35 273.293 2022.34 271.252C2020.38 269.175 2017.6 268.101 2014.02 268.029H1998.87ZM2106.89 284.841L2126.65 239.885H2139.06V298H2129.12V255.729L2110.32 298H2103.45L2084.27 254.816V298H2074.34V239.885H2087.23L2106.89 284.841ZM1319.05 427H1309.12V377.103H1282.37V427H1272.38V368.885H1319.05V427ZM1359.12 428.074C1351.24 428.074 1344.83 425.496 1339.89 420.34C1334.95 415.148 1332.48 408.219 1332.48 399.554V397.728C1332.48 391.963 1333.57 386.824 1335.76 382.312C1337.98 377.765 1341.06 374.22 1345 371.678C1348.97 369.1 1353.27 367.811 1357.89 367.811C1365.44 367.811 1371.31 370.299 1375.5 375.276C1379.69 380.254 1381.79 387.379 1381.79 396.653V400.789H1342.42C1342.56 406.518 1344.23 411.155 1347.41 414.7C1350.64 418.209 1354.72 419.964 1359.66 419.964C1363.17 419.964 1366.14 419.248 1368.58 417.815C1371.01 416.383 1373.14 414.485 1374.97 412.122L1381.04 416.849C1376.17 424.332 1368.86 428.074 1359.12 428.074ZM1357.89 375.975C1353.88 375.975 1350.51 377.443 1347.79 380.379C1345.07 383.279 1343.38 387.361 1342.74 392.625H1371.85V391.873C1371.57 386.824 1370.2 382.921 1367.77 380.164C1365.33 377.371 1362.04 375.975 1357.89 375.975ZM1442.43 398.587C1442.43 407.431 1440.4 414.557 1436.36 419.964C1432.31 425.371 1426.83 428.074 1419.92 428.074C1412.87 428.074 1407.32 425.836 1403.27 421.36V449.344H1393.34V368.885H1402.41L1402.9 375.33C1406.94 370.317 1412.56 367.811 1419.76 367.811C1426.74 367.811 1432.26 370.442 1436.3 375.706C1440.39 380.97 1442.43 388.292 1442.43 397.674V398.587ZM1432.49 397.459C1432.49 390.906 1431.09 385.732 1428.3 381.937C1425.51 378.141 1421.68 376.243 1416.81 376.243C1410.79 376.243 1406.28 378.911 1403.27 384.246V412.015C1406.24 417.314 1410.79 419.964 1416.92 419.964C1421.68 419.964 1425.46 418.084 1428.25 414.324C1431.08 410.529 1432.49 404.907 1432.49 397.459ZM1479.22 428.074C1471.34 428.074 1464.93 425.496 1459.99 420.34C1455.05 415.148 1452.58 408.219 1452.58 399.554V397.728C1452.58 391.963 1453.67 386.824 1455.86 382.312C1458.08 377.765 1461.15 374.22 1465.09 371.678C1469.07 369.1 1473.37 367.811 1477.98 367.811C1485.54 367.811 1491.41 370.299 1495.6 375.276C1499.79 380.254 1501.89 387.379 1501.89 396.653V400.789H1462.52C1462.66 406.518 1464.32 411.155 1467.51 414.7C1470.73 418.209 1474.82 419.964 1479.76 419.964C1483.27 419.964 1486.24 419.248 1488.67 417.815C1491.11 416.383 1493.24 414.485 1495.06 412.122L1501.13 416.849C1496.26 424.332 1488.96 428.074 1479.22 428.074ZM1477.98 375.975C1473.97 375.975 1470.61 377.443 1467.89 380.379C1465.17 383.279 1463.48 387.361 1462.84 392.625H1491.95V391.873C1491.66 386.824 1490.3 382.921 1487.87 380.164C1485.43 377.371 1482.14 375.975 1477.98 375.975ZM1514.35 427V368.885H1537.01C1544.75 368.885 1550.67 370.245 1554.79 372.967C1558.94 375.652 1561.02 379.609 1561.02 384.837C1561.02 387.522 1560.22 389.957 1558.6 392.142C1556.99 394.29 1554.61 395.937 1551.46 397.083C1554.97 397.907 1557.78 399.518 1559.89 401.917C1562.04 404.316 1563.12 407.181 1563.12 410.511C1563.12 415.846 1561.15 419.928 1557.21 422.757C1553.31 425.586 1547.77 427 1540.61 427H1514.35ZM1524.28 401.487V418.997H1540.72C1544.87 418.997 1547.97 418.227 1550.01 416.688C1552.09 415.148 1553.13 412.981 1553.13 410.188C1553.13 404.388 1548.86 401.487 1540.34 401.487H1524.28ZM1524.28 393.538H1537.12C1546.43 393.538 1551.08 390.817 1551.08 385.374C1551.08 379.931 1546.68 377.12 1537.87 376.941H1524.28V393.538ZM1573.64 397.405C1573.64 391.712 1574.75 386.591 1576.97 382.044C1579.23 377.496 1582.34 373.987 1586.32 371.517C1590.33 369.046 1594.9 367.811 1600.02 367.811C1607.93 367.811 1614.32 370.55 1619.19 376.028C1624.1 381.507 1626.55 388.794 1626.55 397.889V398.587C1626.55 404.244 1625.46 409.329 1623.27 413.841C1621.12 418.317 1618.03 421.808 1613.98 424.314C1609.97 426.821 1605.35 428.074 1600.12 428.074C1592.25 428.074 1585.85 425.335 1580.95 419.856C1576.08 414.378 1573.64 407.127 1573.64 398.104V397.405ZM1583.63 398.587C1583.63 405.032 1585.12 410.206 1588.09 414.109C1591.1 418.012 1595.11 419.964 1600.12 419.964C1605.17 419.964 1609.18 417.994 1612.15 414.056C1615.13 410.081 1616.61 404.531 1616.61 397.405C1616.61 391.032 1615.09 385.875 1612.05 381.937C1609.04 377.962 1605.03 375.975 1600.02 375.975C1595.11 375.975 1591.15 377.926 1588.15 381.829C1585.14 385.732 1583.63 391.318 1583.63 398.587ZM1670.97 384.783C1670.97 382.062 1669.93 379.913 1667.85 378.338C1665.78 376.727 1662.93 375.921 1659.31 375.921C1655.8 375.921 1652.87 376.834 1650.5 378.66C1648.18 380.486 1647.01 382.635 1647.01 385.105H1637.13C1637.13 380.057 1639.24 375.921 1643.47 372.698C1647.69 369.476 1652.97 367.864 1659.31 367.864C1666.12 367.864 1671.42 369.332 1675.21 372.269C1679.01 375.169 1680.9 379.323 1680.9 384.729C1680.9 387.343 1680.12 389.743 1678.54 391.927C1676.97 394.111 1674.73 395.848 1671.83 397.137C1678.59 399.428 1681.98 403.94 1681.98 410.672C1681.98 416.007 1679.92 420.232 1675.8 423.348C1671.68 426.463 1666.19 428.021 1659.31 428.021C1652.62 428.021 1647.08 426.391 1642.72 423.133C1638.38 419.839 1636.22 415.398 1636.22 409.812H1646.1C1646.1 412.641 1647.35 415.076 1649.86 417.117C1652.4 419.122 1655.55 420.125 1659.31 420.125C1663.11 420.125 1666.17 419.248 1668.5 417.493C1670.82 415.739 1671.99 413.465 1671.99 410.672C1671.99 407.413 1671 405.086 1669.03 403.689C1667.1 402.257 1664.07 401.541 1659.96 401.541H1650.02V393.162H1660.82C1667.58 392.983 1670.97 390.19 1670.97 384.783ZM1712.97 402.239H1705.72V427H1695.73V368.885H1705.72V393.484H1712.22L1731.77 368.885H1743.8L1720.81 396.814L1745.73 427H1733.11L1712.97 402.239ZM1790.15 427C1789.58 425.854 1789.11 423.813 1788.76 420.877C1784.14 425.675 1778.62 428.074 1772.21 428.074C1766.48 428.074 1761.78 426.463 1758.09 423.24C1754.43 419.982 1752.61 415.864 1752.61 410.887C1752.61 404.835 1754.9 400.145 1759.48 396.814C1764.1 393.449 1770.58 391.766 1778.93 391.766H1788.59V387.2C1788.59 383.727 1787.56 380.97 1785.48 378.929C1783.4 376.852 1780.34 375.813 1776.29 375.813C1772.75 375.813 1769.78 376.709 1767.38 378.499C1764.98 380.289 1763.78 382.456 1763.78 384.998H1753.79C1753.79 382.098 1754.81 379.305 1756.85 376.619C1758.93 373.898 1761.72 371.749 1765.23 370.174C1768.78 368.598 1772.66 367.811 1776.89 367.811C1783.58 367.811 1788.83 369.493 1792.62 372.859C1796.42 376.189 1798.39 380.791 1798.53 386.663V413.411C1798.53 418.746 1799.21 422.99 1800.57 426.141V427H1790.15ZM1773.66 419.427C1776.78 419.427 1779.73 418.621 1782.53 417.01C1785.32 415.398 1787.34 413.304 1788.59 410.726V398.802H1780.81C1768.63 398.802 1762.54 402.365 1762.54 409.49C1762.54 412.605 1763.58 415.04 1765.66 416.795C1767.74 418.549 1770.4 419.427 1773.66 419.427ZM1847.57 413.841L1867.33 368.885H1879.74V427H1869.81V384.729L1851.01 427H1844.13L1824.96 383.816V427H1815.02V368.885H1827.91L1847.57 413.841Z" fill="black"/>
<path d="M352.361 183.906L375.604 241.914L398.846 183.906H411.004V255H401.629V227.314L402.508 197.432L379.168 255H371.99L348.699 197.578L349.627 227.314V255H340.252V183.906H352.361ZM467.693 236.445H437.908L431.219 255H421.551L448.699 183.906H456.902L484.1 255H474.48L467.693 236.445ZM440.74 228.73H464.91L452.801 195.479L440.74 228.73ZM547.967 255H538.543V191.621H503.484V255H494.109V183.906H547.967V255ZM583.514 223.066H574.871V255H565.496V183.906H574.871V215.254H582.195L607.049 183.906H618.719L591.57 218.379L620.721 255H609.246L583.514 223.066ZM668.572 236.445H638.787L632.098 255H622.43L649.578 183.906H657.781L684.979 255H675.359L668.572 236.445ZM641.619 228.73H665.789L653.68 195.479L641.619 228.73ZM703.924 227.168V255H694.549V183.906H720.77C728.549 183.906 734.637 185.892 739.031 189.863C743.458 193.835 745.672 199.092 745.672 205.635C745.672 212.536 743.507 217.858 739.178 221.602C734.881 225.312 728.712 227.168 720.672 227.168H703.924ZM703.924 219.502H720.77C725.783 219.502 729.624 218.33 732.293 215.986C734.962 213.61 736.297 210.192 736.297 205.732C736.297 201.501 734.962 198.115 732.293 195.576C729.624 193.037 725.962 191.719 721.307 191.621H703.924V219.502ZM806.756 191.621H783.904V255H774.578V191.621H751.775V183.906H806.756V191.621ZM852.654 236.445H822.869L816.18 255H806.512L833.66 183.906H841.863L869.061 255H859.441L852.654 236.445ZM825.701 228.73H849.871L837.762 195.479L825.701 228.73ZM877.41 250.264C877.41 248.701 877.866 247.399 878.777 246.357C879.721 245.316 881.121 244.795 882.977 244.795C884.832 244.795 886.232 245.316 887.176 246.357C888.152 247.399 888.641 248.701 888.641 250.264C888.641 251.761 888.152 253.014 887.176 254.023C886.232 255.033 884.832 255.537 882.977 255.537C881.121 255.537 879.721 255.033 878.777 254.023C877.866 253.014 877.41 251.761 877.41 250.264ZM914.373 227.168V255H904.998V183.906H931.219C938.999 183.906 945.086 185.892 949.48 189.863C953.908 193.835 956.121 199.092 956.121 205.635C956.121 212.536 953.956 217.858 949.627 221.602C945.33 225.312 939.161 227.168 931.121 227.168H914.373ZM914.373 219.502H931.219C936.232 219.502 940.073 218.33 942.742 215.986C945.411 213.61 946.746 210.192 946.746 205.732C946.746 201.501 945.411 198.115 942.742 195.576C940.073 193.037 936.411 191.719 931.756 191.621H914.373V219.502ZM1003.19 191.035H1004.71C1010.08 191.068 1014.98 192.321 1019.4 194.795C1023.83 197.269 1027.26 200.687 1029.71 205.049C1032.18 209.378 1033.42 214.229 1033.42 219.6C1033.42 225.003 1032.18 229.902 1029.71 234.297C1027.23 238.691 1023.81 242.126 1019.45 244.6C1015.09 247.041 1010.24 248.294 1004.9 248.359H1003.19V257.93H994.109V248.359H992.742C987.306 248.359 982.358 247.122 977.898 244.648C973.471 242.174 970.021 238.757 967.547 234.395C965.105 230.033 963.885 225.133 963.885 219.697C963.885 214.261 965.105 209.362 967.547 205C970.021 200.638 973.471 197.22 977.898 194.746C982.358 192.272 987.306 191.035 992.742 191.035H994.109V180.977H1003.19V191.035ZM992.742 198.408C986.622 198.408 981.772 200.296 978.191 204.072C974.643 207.816 972.869 213.024 972.869 219.697C972.869 226.403 974.643 231.628 978.191 235.371C981.74 239.082 986.622 240.938 992.84 240.938H994.109V198.408H992.742ZM1003.19 198.408V240.938H1004.56C1010.78 240.938 1015.63 239.033 1019.11 235.225C1022.62 231.383 1024.38 226.175 1024.38 219.6C1024.38 213.089 1022.62 207.93 1019.11 204.121C1015.63 200.312 1010.71 198.408 1004.36 198.408H1003.19Z" fill="black"/>
<circle cx="985" cy="396" r="52" stroke="black" stroke-width="14"/>
<path d="M1005.11 383.398C1001.09 384.371 998.609 388.441 999.578 392.461C999.859 393.609 1000 394.801 1000 396C999.98 404.262 993.25 410.992 985 411C976.738 410.992 970.012 404.262 970 396C970.012 387.742 976.738 381.02 985 381C989.129 381 992.5 377.641 992.5 373.5C992.5 369.371 989.129 366 985 366C968.406 366 955 379.438 955 396C955 412.566 968.402 426 985 426C1001.57 426 1014.98 412.598 1015 396C1015 393.621 1014.72 391.242 1014.16 388.941C1013.17 384.852 1009.11 382.438 1005.11 383.398V383.398Z" fill="black"/>
<rect x="914" y="336" width="142" height="15" rx="4" fill="black"/>
<line x1="1191" x2="1191" y2="560" stroke="black" stroke-width="12"/>
</svg>
