<svg width="1289" height="739" viewBox="0 0 1289 739" fill="none" xmlns="http://www.w3.org/2000/svg">
<rect x="21" y="117" width="1256" height="313" fill="white" stroke="black" stroke-width="14"/>
<rect x="36" y="132" width="941" height="283" fill="#E4D01B"/>
<rect x="36" y="132" width="941" height="283" stroke="black"/>
<path d="M86.4121 618.432H77.0859V601H26.0605V618.48H16.6855L16.6367 593.334H22.4473C25.5072 589.883 27.9323 585.261 29.7227 579.467C31.5456 573.64 32.6849 567.26 33.1406 560.326L34.7031 529.906H77.2324V593.334H86.5098L86.4121 618.432ZM33.1406 593.334H67.8086V537.621H43.7363L42.7109 558.52C42.2878 566.69 41.1973 573.656 39.4395 579.418C37.7142 585.18 35.6146 589.818 33.1406 593.334ZM93.834 574.096C93.834 568.92 94.8431 564.265 96.8613 560.131C98.9121 555.997 101.744 552.807 105.357 550.561C109.003 548.314 113.154 547.191 117.809 547.191C125.003 547.191 130.813 549.682 135.24 554.662C139.7 559.643 141.93 566.267 141.93 574.535V575.17C141.93 580.313 140.937 584.936 138.951 589.037C136.998 593.106 134.182 596.28 130.504 598.559C126.858 600.837 122.659 601.977 117.906 601.977C110.745 601.977 104.934 599.486 100.475 594.506C96.0475 589.525 93.834 582.934 93.834 574.73V574.096ZM102.916 575.17C102.916 581.029 104.267 585.733 106.969 589.281C109.703 592.829 113.349 594.604 117.906 594.604C122.496 594.604 126.142 592.813 128.844 589.232C131.546 585.619 132.896 580.574 132.896 574.096C132.896 568.301 131.513 563.614 128.746 560.033C126.012 556.42 122.366 554.613 117.809 554.613C113.349 554.613 109.752 556.387 107.018 559.936C104.283 563.484 102.916 568.562 102.916 575.17ZM196.471 601H187.438V555.639H163.121V601H154.039V548.168H196.471V601ZM228.258 587.768L240.562 548.168H250.23L228.99 609.154C225.702 617.943 220.478 622.338 213.316 622.338L211.607 622.191L208.238 621.557V614.232L210.68 614.428C213.74 614.428 216.116 613.809 217.809 612.572C219.534 611.335 220.95 609.073 222.057 605.785L224.059 600.414L205.211 548.168H215.074L228.258 587.768ZM278.844 594.604C282.066 594.604 284.882 593.627 287.291 591.674C289.7 589.721 291.035 587.279 291.295 584.35H299.84C299.677 587.377 298.635 590.258 296.715 592.992C294.794 595.727 292.223 597.908 289 599.535C285.81 601.163 282.424 601.977 278.844 601.977C271.65 601.977 265.921 599.584 261.656 594.799C257.424 589.981 255.309 583.406 255.309 575.072V573.559C255.309 568.415 256.253 563.842 258.141 559.838C260.029 555.834 262.73 552.725 266.246 550.512C269.794 548.298 273.977 547.191 278.795 547.191C284.719 547.191 289.635 548.965 293.541 552.514C297.48 556.062 299.579 560.668 299.84 566.332H291.295C291.035 562.914 289.732 560.115 287.389 557.934C285.077 555.72 282.213 554.613 278.795 554.613C274.205 554.613 270.641 556.273 268.102 559.594C265.595 562.882 264.342 567.65 264.342 573.9V575.609C264.342 581.697 265.595 586.384 268.102 589.672C270.608 592.96 274.189 594.604 278.844 594.604ZM326.451 578.49H319.859V601H310.777V548.168H319.859V570.531H325.768L343.541 548.168H354.479L333.58 573.559L356.236 601H344.762L326.451 578.49ZM405.26 578.49H398.668V601H389.586V548.168H398.668V570.531H404.576L422.35 548.168H433.287L412.389 573.559L435.045 601H423.57L405.26 578.49ZM498.033 589.037L516.002 548.168H527.281V601H518.248V562.572L501.158 601H494.908L477.477 561.742V601H468.443V548.168H480.162L498.033 589.037ZM563.756 601.977C556.594 601.977 550.768 599.633 546.275 594.945C541.783 590.225 539.537 583.926 539.537 576.049V574.389C539.537 569.148 540.53 564.477 542.516 560.375C544.534 556.241 547.333 553.018 550.914 550.707C554.527 548.363 558.434 547.191 562.633 547.191C569.501 547.191 574.84 549.454 578.648 553.979C582.457 558.503 584.361 564.981 584.361 573.412V577.172H548.57C548.701 582.38 550.214 586.596 553.111 589.818C556.041 593.008 559.752 594.604 564.244 594.604C567.434 594.604 570.136 593.952 572.35 592.65C574.563 591.348 576.5 589.623 578.16 587.475L583.678 591.771C579.251 598.575 572.61 601.977 563.756 601.977ZM562.633 554.613C558.987 554.613 555.927 555.948 553.453 558.617C550.979 561.254 549.449 564.965 548.863 569.75H575.328V569.066C575.068 564.477 573.831 560.928 571.617 558.422C569.404 555.883 566.409 554.613 562.633 554.613ZM636.998 578.051H630.65V601H621.617V578.051H615.27L600.475 601H589.049L607.945 573.656L590.855 548.168H601.793L615.416 570.043H621.617V548.168H630.65V570.043H636.803L650.523 548.168H661.461L644.322 573.705L663.219 601H651.793L636.998 578.051ZM670.982 593.627L674.107 589.77C677.623 585.212 679.625 578.376 680.113 569.262L680.943 548.168H714.977V593.627H721.764V616.527H712.73V601H675.865V616.527H666.832L666.881 593.627H670.982ZM681.676 593.627H705.943V556.518H689.684L689.146 569.115C688.593 579.63 686.103 587.8 681.676 593.627ZM749.059 587.768L761.363 548.168H771.031L749.791 609.154C746.503 617.943 741.279 622.338 734.117 622.338L732.408 622.191L729.039 621.557V614.232L731.48 614.428C734.54 614.428 736.917 613.809 738.609 612.572C740.335 611.335 741.751 609.073 742.857 605.785L744.859 600.414L726.012 548.168H735.875L749.059 587.768ZM822.301 601H813.268V578.441H789V601H779.918V548.168H789V571.068H813.268V548.168H822.301V601ZM869.469 601C868.948 599.958 868.525 598.103 868.199 595.434C864 599.796 858.987 601.977 853.16 601.977C847.952 601.977 843.671 600.512 840.318 597.582C836.998 594.62 835.338 590.876 835.338 586.352C835.338 580.85 837.421 576.586 841.588 573.559C845.787 570.499 851.679 568.969 859.264 568.969H868.053V564.818C868.053 561.661 867.109 559.154 865.221 557.299C863.333 555.411 860.549 554.467 856.871 554.467C853.648 554.467 850.947 555.281 848.766 556.908C846.585 558.536 845.494 560.505 845.494 562.816H836.412C836.412 560.18 837.34 557.641 839.195 555.199C841.083 552.725 843.622 550.772 846.812 549.34C850.035 547.908 853.567 547.191 857.408 547.191C863.495 547.191 868.264 548.721 871.715 551.781C875.165 554.809 876.956 558.992 877.086 564.33V588.646C877.086 593.497 877.704 597.354 878.941 600.219V601H869.469ZM854.479 594.115C857.311 594.115 859.996 593.383 862.535 591.918C865.074 590.453 866.913 588.549 868.053 586.205V575.365H860.973C849.905 575.365 844.371 578.604 844.371 585.082C844.371 587.914 845.315 590.128 847.203 591.723C849.091 593.318 851.516 594.115 854.479 594.115ZM935.875 575.17C935.875 583.21 934.036 589.688 930.357 594.604C926.679 599.519 921.699 601.977 915.416 601.977C909.003 601.977 903.958 599.942 900.279 595.873V621.312H891.246V548.168H899.498L899.938 554.027C903.616 549.47 908.727 547.191 915.27 547.191C921.617 547.191 926.63 549.584 930.309 554.369C934.02 559.154 935.875 565.811 935.875 574.34V575.17ZM926.842 574.145C926.842 568.188 925.572 563.484 923.033 560.033C920.494 556.583 917.011 554.857 912.584 554.857C907.115 554.857 903.014 557.283 900.279 562.133V587.377C902.981 592.195 907.115 594.604 912.682 594.604C917.011 594.604 920.445 592.895 922.984 589.477C925.556 586.026 926.842 580.915 926.842 574.145ZM945.006 574.096C945.006 568.92 946.015 564.265 948.033 560.131C950.084 555.997 952.916 552.807 956.529 550.561C960.175 548.314 964.326 547.191 968.98 547.191C976.174 547.191 981.985 549.682 986.412 554.662C990.872 559.643 993.102 566.267 993.102 574.535V575.17C993.102 580.313 992.109 584.936 990.123 589.037C988.17 593.106 985.354 596.28 981.676 598.559C978.03 600.837 973.831 601.977 969.078 601.977C961.917 601.977 956.106 599.486 951.646 594.506C947.219 589.525 945.006 582.934 945.006 574.73V574.096ZM954.088 575.17C954.088 581.029 955.439 585.733 958.141 589.281C960.875 592.829 964.521 594.604 969.078 594.604C973.668 594.604 977.314 592.813 980.016 589.232C982.717 585.619 984.068 580.574 984.068 574.096C984.068 568.301 982.685 563.614 979.918 560.033C977.184 556.42 973.538 554.613 968.98 554.613C964.521 554.613 960.924 556.387 958.189 559.936C955.455 563.484 954.088 568.562 954.088 575.17ZM1000.47 593.627L1003.6 589.77C1007.12 585.212 1009.12 578.376 1009.61 569.262L1010.44 548.168H1044.47V593.627H1051.26V616.527H1042.22V601H1005.36V616.527H996.324L996.373 593.627H1000.47ZM1011.17 593.627H1035.44V556.518H1019.18L1018.64 569.115C1018.09 579.63 1015.6 587.8 1011.17 593.627ZM1104.43 601H1095.4V578.441H1071.13V601H1062.05V548.168H1071.13V571.068H1095.4V548.168H1104.43V601ZM1128.84 566.381H1142.56C1148.55 566.446 1153.29 568.008 1156.77 571.068C1160.26 574.128 1162 578.279 1162 583.52C1162 588.793 1160.21 593.025 1156.63 596.215C1153.05 599.405 1148.23 601 1142.17 601H1119.81V548.168H1128.84V566.381ZM1180.85 601H1171.76V548.168H1180.85V601ZM1128.84 573.754V593.627H1142.27C1145.66 593.627 1148.28 592.764 1150.13 591.039C1151.99 589.281 1152.92 586.889 1152.92 583.861C1152.92 580.932 1152 578.539 1150.18 576.684C1148.39 574.796 1145.87 573.819 1142.61 573.754H1128.84ZM1227.04 589.037L1245.01 548.168H1256.29V601H1247.25V562.572L1230.16 601H1223.91L1206.48 561.742V601H1197.45V548.168H1209.17L1227.04 589.037ZM417.809 718H408.775V672.639H384.459V718H375.377V665.168H417.809V718ZM454.234 718.977C447.073 718.977 441.246 716.633 436.754 711.945C432.262 707.225 430.016 700.926 430.016 693.049V691.389C430.016 686.148 431.008 681.477 432.994 677.375C435.012 673.241 437.812 670.018 441.393 667.707C445.006 665.363 448.912 664.191 453.111 664.191C459.98 664.191 465.318 666.454 469.127 670.979C472.936 675.503 474.84 681.981 474.84 690.412V694.172H439.049C439.179 699.38 440.693 703.596 443.59 706.818C446.52 710.008 450.23 711.604 454.723 711.604C457.913 711.604 460.615 710.952 462.828 709.65C465.042 708.348 466.979 706.623 468.639 704.475L474.156 708.771C469.729 715.575 463.089 718.977 454.234 718.977ZM453.111 671.613C449.465 671.613 446.406 672.948 443.932 675.617C441.458 678.254 439.928 681.965 439.342 686.75H465.807V686.066C465.546 681.477 464.309 677.928 462.096 675.422C459.882 672.883 456.887 671.613 453.111 671.613ZM529.967 692.17C529.967 700.21 528.128 706.688 524.449 711.604C520.771 716.519 515.79 718.977 509.508 718.977C503.095 718.977 498.049 716.942 494.371 712.873V738.312H485.338V665.168H493.59L494.029 671.027C497.708 666.47 502.818 664.191 509.361 664.191C515.709 664.191 520.722 666.584 524.4 671.369C528.111 676.154 529.967 682.811 529.967 691.34V692.17ZM520.934 691.145C520.934 685.188 519.664 680.484 517.125 677.033C514.586 673.583 511.103 671.857 506.676 671.857C501.207 671.857 497.105 674.283 494.371 679.133V704.377C497.073 709.195 501.207 711.604 506.773 711.604C511.103 711.604 514.537 709.895 517.076 706.477C519.648 703.026 520.934 697.915 520.934 691.145ZM563.414 718.977C556.253 718.977 550.426 716.633 545.934 711.945C541.441 707.225 539.195 700.926 539.195 693.049V691.389C539.195 686.148 540.188 681.477 542.174 677.375C544.192 673.241 546.992 670.018 550.572 667.707C554.186 665.363 558.092 664.191 562.291 664.191C569.16 664.191 574.498 666.454 578.307 670.979C582.115 675.503 584.02 681.981 584.02 690.412V694.172H548.229C548.359 699.38 549.872 703.596 552.77 706.818C555.699 710.008 559.41 711.604 563.902 711.604C567.092 711.604 569.794 710.952 572.008 709.65C574.221 708.348 576.158 706.623 577.818 704.475L583.336 708.771C578.909 715.575 572.268 718.977 563.414 718.977ZM562.291 671.613C558.645 671.613 555.585 672.948 553.111 675.617C550.637 678.254 549.107 681.965 548.521 686.75H574.986V686.066C574.726 681.477 573.489 677.928 571.275 675.422C569.062 672.883 566.067 671.613 562.291 671.613ZM595.348 718V665.168H615.953C622.984 665.168 628.372 666.405 632.115 668.879C635.891 671.32 637.779 674.917 637.779 679.67C637.779 682.111 637.047 684.325 635.582 686.311C634.117 688.264 631.952 689.761 629.088 690.803C632.278 691.551 634.833 693.016 636.754 695.197C638.707 697.378 639.684 699.982 639.684 703.01C639.684 707.86 637.893 711.571 634.312 714.143C630.764 716.714 625.735 718 619.225 718H595.348ZM604.381 694.807V710.725H619.322C623.098 710.725 625.914 710.025 627.77 708.625C629.658 707.225 630.602 705.256 630.602 702.717C630.602 697.443 626.728 694.807 618.98 694.807H604.381ZM604.381 687.58H616.051C624.514 687.58 628.746 685.106 628.746 680.158C628.746 675.21 624.742 672.655 616.734 672.492H604.381V687.58ZM649.254 691.096C649.254 685.92 650.263 681.265 652.281 677.131C654.332 672.997 657.164 669.807 660.777 667.561C664.423 665.314 668.574 664.191 673.229 664.191C680.423 664.191 686.233 666.682 690.66 671.662C695.12 676.643 697.35 683.267 697.35 691.535V692.17C697.35 697.313 696.357 701.936 694.371 706.037C692.418 710.106 689.602 713.28 685.924 715.559C682.278 717.837 678.079 718.977 673.326 718.977C666.165 718.977 660.354 716.486 655.895 711.506C651.467 706.525 649.254 699.934 649.254 691.73V691.096ZM658.336 692.17C658.336 698.029 659.687 702.733 662.389 706.281C665.123 709.829 668.769 711.604 673.326 711.604C677.916 711.604 681.562 709.813 684.264 706.232C686.965 702.619 688.316 697.574 688.316 691.096C688.316 685.301 686.933 680.614 684.166 677.033C681.432 673.42 677.786 671.613 673.229 671.613C668.769 671.613 665.172 673.387 662.438 676.936C659.703 680.484 658.336 685.562 658.336 692.17ZM737.73 679.621C737.73 677.147 736.786 675.194 734.898 673.762C733.01 672.297 730.423 671.564 727.135 671.564C723.945 671.564 721.275 672.395 719.127 674.055C717.011 675.715 715.953 677.668 715.953 679.914H706.969C706.969 675.324 708.889 671.564 712.73 668.635C716.572 665.705 721.373 664.24 727.135 664.24C733.32 664.24 738.137 665.575 741.588 668.244C745.038 670.881 746.764 674.657 746.764 679.572C746.764 681.949 746.048 684.13 744.615 686.115C743.183 688.101 741.148 689.68 738.512 690.852C744.664 692.935 747.74 697.036 747.74 703.156C747.74 708.007 745.868 711.848 742.125 714.68C738.382 717.512 733.385 718.928 727.135 718.928C721.048 718.928 716.018 717.447 712.047 714.484C708.108 711.49 706.139 707.453 706.139 702.375H715.123C715.123 704.947 716.262 707.16 718.541 709.016C720.852 710.839 723.717 711.75 727.135 711.75C730.585 711.75 733.368 710.952 735.484 709.357C737.6 707.762 738.658 705.695 738.658 703.156C738.658 700.194 737.763 698.078 735.973 696.809C734.215 695.507 731.464 694.855 727.721 694.855H718.688V687.238H728.502C734.654 687.076 737.73 684.536 737.73 679.621ZM775.914 695.49H769.322V718H760.24V665.168H769.322V687.531H775.23L793.004 665.168H803.941L783.043 690.559L805.699 718H794.225L775.914 695.49ZM846.08 718C845.559 716.958 845.136 715.103 844.811 712.434C840.611 716.796 835.598 718.977 829.771 718.977C824.563 718.977 820.283 717.512 816.93 714.582C813.609 711.62 811.949 707.876 811.949 703.352C811.949 697.85 814.033 693.586 818.199 690.559C822.398 687.499 828.29 685.969 835.875 685.969H844.664V681.818C844.664 678.661 843.72 676.154 841.832 674.299C839.944 672.411 837.161 671.467 833.482 671.467C830.26 671.467 827.558 672.281 825.377 673.908C823.196 675.536 822.105 677.505 822.105 679.816H813.023C813.023 677.18 813.951 674.641 815.807 672.199C817.695 669.725 820.234 667.772 823.424 666.34C826.646 664.908 830.178 664.191 834.02 664.191C840.107 664.191 844.876 665.721 848.326 668.781C851.777 671.809 853.567 675.992 853.697 681.33V705.646C853.697 710.497 854.316 714.354 855.553 717.219V718H846.08ZM831.09 711.115C833.922 711.115 836.607 710.383 839.146 708.918C841.686 707.453 843.525 705.549 844.664 703.205V692.365H837.584C826.516 692.365 820.982 695.604 820.982 702.082C820.982 704.914 821.926 707.128 823.814 708.723C825.702 710.318 828.128 711.115 831.09 711.115ZM898.277 706.037L916.246 665.168H927.525V718H918.492V679.572L901.402 718H895.152L877.721 678.742V718H868.688V665.168H880.406L898.277 706.037Z" fill="black"/>
<path d="M116.578 215.25L153.766 308.062L190.953 215.25H210.406V329H195.406V284.703L196.812 236.891L159.469 329H147.984L110.719 237.125L112.203 284.703V329H97.2031V215.25H116.578ZM301.109 299.312H253.453L242.75 329H227.281L270.719 215.25H283.844L327.359 329H311.969L301.109 299.312ZM257.984 286.969H296.656L277.281 233.766L257.984 286.969ZM429.547 329H414.469V227.594H358.375V329H343.375V215.25H429.547V329ZM486.422 277.906H472.594V329H457.594V215.25H472.594V265.406H484.312L524.078 215.25H542.75L499.312 270.406L545.953 329H527.594L486.422 277.906ZM622.516 299.312H574.859L564.156 329H548.688L592.125 215.25H605.25L648.766 329H633.375L622.516 299.312ZM579.391 286.969H618.062L598.688 233.766L579.391 286.969ZM679.078 284.469V329H664.078V215.25H706.031C718.479 215.25 728.219 218.427 735.25 224.781C742.333 231.135 745.875 239.547 745.875 250.016C745.875 261.057 742.411 269.573 735.484 275.562C728.609 281.5 718.74 284.469 705.875 284.469H679.078ZM679.078 272.203H706.031C714.052 272.203 720.198 270.328 724.469 266.578C728.74 262.776 730.875 257.307 730.875 250.172C730.875 243.401 728.74 237.984 724.469 233.922C720.198 229.859 714.339 227.75 706.891 227.594H679.078V272.203ZM843.609 227.594H807.047V329H792.125V227.594H755.641V215.25H843.609V227.594ZM917.047 299.312H869.391L858.688 329H843.219L886.656 215.25H899.781L943.297 329H927.906L917.047 299.312ZM873.922 286.969H912.594L893.219 233.766L873.922 286.969ZM956.656 321.422C956.656 318.922 957.385 316.839 958.844 315.172C960.354 313.505 962.594 312.672 965.562 312.672C968.531 312.672 970.771 313.505 972.281 315.172C973.844 316.839 974.625 318.922 974.625 321.422C974.625 323.818 973.844 325.823 972.281 327.438C970.771 329.052 968.531 329.859 965.562 329.859C962.594 329.859 960.354 329.052 958.844 327.438C957.385 325.823 956.656 323.818 956.656 321.422ZM1015.8 284.469V329H1000.8V215.25H1042.75C1055.2 215.25 1064.94 218.427 1071.97 224.781C1079.05 231.135 1082.59 239.547 1082.59 250.016C1082.59 261.057 1079.13 269.573 1072.2 275.562C1065.33 281.5 1055.46 284.469 1042.59 284.469H1015.8ZM1015.8 272.203H1042.75C1050.77 272.203 1056.92 270.328 1061.19 266.578C1065.46 262.776 1067.59 257.307 1067.59 250.172C1067.59 243.401 1065.46 237.984 1061.19 233.922C1056.92 229.859 1051.06 227.75 1043.61 227.594H1015.8V272.203ZM1157.91 226.656H1160.33C1168.92 226.708 1176.76 228.714 1183.84 232.672C1190.93 236.63 1196.42 242.099 1200.33 249.078C1204.29 256.005 1206.27 263.766 1206.27 272.359C1206.27 281.005 1204.29 288.844 1200.33 295.875C1196.37 302.906 1190.9 308.401 1183.92 312.359C1176.94 316.266 1169.18 318.271 1160.64 318.375H1157.91V333.688H1143.38V318.375H1141.19C1132.49 318.375 1124.57 316.396 1117.44 312.438C1110.35 308.479 1104.83 303.01 1100.88 296.031C1096.97 289.052 1095.02 281.214 1095.02 272.516C1095.02 263.818 1096.97 255.979 1100.88 249C1104.83 242.021 1110.35 236.552 1117.44 232.594C1124.57 228.635 1132.49 226.656 1141.19 226.656H1143.38V210.562H1157.91V226.656ZM1141.19 238.453C1131.4 238.453 1123.64 241.474 1117.91 247.516C1112.23 253.505 1109.39 261.839 1109.39 272.516C1109.39 283.245 1112.23 291.604 1117.91 297.594C1123.58 303.531 1131.4 306.5 1141.34 306.5H1143.38V238.453H1141.19ZM1157.91 238.453V306.5H1160.09C1170.04 306.5 1177.8 303.453 1183.38 297.359C1189 291.214 1191.81 282.88 1191.81 272.359C1191.81 261.943 1189 253.688 1183.38 247.594C1177.8 241.5 1169.94 238.453 1159.78 238.453H1157.91Z" fill="black"/>
</svg>
