<svg width="1275" height="704" viewBox="0 0 1275 704" fill="none" xmlns="http://www.w3.org/2000/svg">
<path d="M168.879 327.532C163.992 327.532 160.449 332.106 161.578 336.802C161.859 337.95 162 339.153 162 340.341C161.988 348.603 155.262 355.333 147 355.341C138.738 355.333 132.02 348.603 132 340.341C132.02 332.083 138.738 325.36 147 325.341C151.141 325.341 154.5 321.981 154.5 317.841C154.5 313.712 151.141 310.341 147 310.341C130.449 310.341 117 323.731 117 340.341C117 356.938 130.438 370.341 147 370.341C163.531 370.341 177 356.97 177 340.341C177 337.962 176.719 335.583 176.16 333.271C175.34 329.892 172.352 327.532 168.879 327.532Z" fill="black"/>
<path d="M394.109 327.739C390.09 328.712 387.609 332.782 388.578 336.802C388.859 337.95 389 339.142 389 340.341C388.98 348.603 382.25 355.333 374 355.341C365.738 355.333 359.012 348.603 359 340.341C359.012 332.083 365.738 325.36 374 325.341C378.129 325.341 381.5 321.981 381.5 317.841C381.5 313.712 378.129 310.341 374 310.341C365.98 310.341 358.449 313.462 352.789 319.13C347.121 324.79 344 332.333 344 340.341C344 356.907 357.402 370.341 374 370.341C390.574 370.341 403.98 356.938 404 340.341C404 337.962 403.719 335.583 403.16 333.282C402.172 329.192 398.109 326.778 394.109 327.739Z" fill="black"/>
<path d="M499.109 327.739C495.09 328.712 492.609 332.782 493.578 336.802C493.859 337.95 494 339.142 494 340.341C493.98 348.603 487.25 355.333 479 355.341C470.738 355.333 464.012 348.603 464 340.341C464.012 332.083 470.738 325.36 479 325.341C483.129 325.341 486.5 321.981 486.5 317.841C486.5 313.712 483.129 310.341 479 310.341C462.406 310.341 449 323.778 449 340.341C449 356.907 462.402 370.341 479 370.341C495.574 370.341 508.98 356.938 509 340.341C509 337.962 508.719 335.583 508.16 333.282C507.172 329.192 503.109 326.778 499.109 327.739Z" fill="black"/>
<path d="M536.5 280.34C524.062 280.34 317.047 280.34 310.496 280.34C310.496 272.09 310.496 72.8951 310.5 61.9146C310.5 53.7818 316.023 46.7818 323.934 44.8912C330.742 43.2623 335.5 37.2623 335.5 30.2974V15.0123C335.5 10.6138 333.578 6.44978 330.23 3.5865C326.898 0.738845 322.516 -0.499436 318.188 0.184158C303.66 2.48494 290.332 9.93025 280.66 21.1451C270.883 32.481 265.5 46.9615 265.5 61.9146H245.496C214.953 61.9146 189.664 84.856 185.965 114.415H178.008C160.34 114.415 145.297 126.45 141.422 143.688L126.996 207.833H83C67.8359 207.833 55.5 220.169 55.5 235.333V304.344C50.4805 306.774 47 311.903 47 317.84V332.84C47 341.114 53.7305 347.84 62 347.84H87.4844C91.1914 377.395 116.457 400.34 147 400.34C177.543 400.34 202.812 377.395 206.516 347.84H314.484C318.191 377.395 343.457 400.34 374 400.34C396.566 400.34 416.258 387.813 426.5 369.348C436.742 387.809 456.434 400.34 479 400.34C509.574 400.34 534.863 377.344 538.527 347.747C549.984 346.715 559 337.063 559 325.34V302.84C559 290.434 548.906 280.34 536.5 280.34ZM320.5 15.0123L320.445 30.3013C305.758 33.8131 295.5 46.8131 295.5 61.9146H280.5C280.5 38.7857 297.711 18.6178 320.5 15.0123ZM87.4766 332.84H62V317.84H91.3867C89.4336 322.641 88.1211 327.676 87.4766 332.84ZM147 385.34C122.188 385.34 102 365.153 102 340.34C102 315.329 122.473 295.34 147 295.34C171.812 295.34 192 315.528 192 340.34C192 365.153 171.812 385.34 147 385.34ZM206.516 332.84C202.809 303.286 177.543 280.34 147 280.34C128.785 280.34 111.586 288.688 100.219 302.84H70.5V235.333C70.5 228.438 76.1055 222.833 83 222.833H132.996C136.508 222.833 139.547 220.399 140.316 216.977L156.055 146.977C158.383 136.637 167.41 129.415 178.008 129.415H192.887C192.926 129.415 192.961 129.422 193 129.422C197.152 129.422 200.5 126.016 200.5 121.911C200.5 97.1217 220.664 76.9146 245.496 76.9146H295.496V114.411H223C218.859 114.411 215.5 117.782 215.5 121.911C215.5 126.051 218.859 129.422 223 129.422H295.5V287.84C295.5 291.985 298.855 295.34 303 295.34H334.375C323.664 304.782 316.348 317.973 314.484 332.84H206.516ZM374 385.34C349.188 385.34 329 365.153 329 340.34C329 315.528 349.184 295.34 373.996 295.34H374C398.812 295.34 419 315.528 419 340.34C419 365.157 398.812 385.34 374 385.34ZM426.5 311.336C423.145 305.29 418.773 299.883 413.621 295.34H439.375C434.223 299.883 429.855 305.29 426.5 311.336ZM479 385.34C454.188 385.34 434 365.153 434 340.34C434 315.528 454.184 295.34 478.996 295.34H479C503.812 295.34 524 315.528 524 340.34C524 365.157 503.812 385.34 479 385.34ZM544 325.34C544 328.79 541.656 331.696 538.48 332.567C536.559 317.813 529.266 304.727 518.621 295.34H536.5C540.637 295.34 544 298.704 544 302.84V325.34Z" fill="black"/>
<path d="M283 302.841H255.539L255.543 151.915C255.543 147.771 252.184 144.415 248.043 144.415H176.219C172.711 144.415 169.672 146.845 168.902 150.271L154.641 213.688C154.141 215.911 154.68 218.239 156.102 220.017C157.524 221.798 159.68 222.833 161.957 222.833H240.539V302.841H228.781C217.676 278.7 196.52 260.751 171.25 253.657V245.329C171.25 241.2 167.879 237.829 163.75 237.829C159.621 237.829 156.262 241.188 156.25 245.31V245.329V259.548C156.25 263.091 158.762 266.181 162.231 266.899C186.75 271.962 207.68 289.661 216.852 313.079C217.961 315.931 220.77 317.841 223.828 317.841H283C287.141 317.841 290.5 314.485 290.5 310.341C290.5 306.2 287.141 302.841 283 302.841ZM240.543 207.833H171.332L182.219 159.415H240.543V207.833Z" fill="black"/>
<rect x="337" y="70" width="778" height="190" fill="white" stroke="black" stroke-width="14"/>
<rect x="344" y="77" width="587" height="176" fill="#E4D01B"/>
<rect x="344" y="77" width="587" height="176" stroke="black"/>
<path d="M72.4121 580.432H63.0859V563H12.0605V580.48H2.68555L2.63672 555.334H8.44727C11.5072 551.883 13.9323 547.261 15.7227 541.467C17.5456 535.64 18.6849 529.26 19.1406 522.326L20.7031 491.906H63.2324V555.334H72.5098L72.4121 580.432ZM19.1406 555.334H53.8086V499.621H29.7363L28.7109 520.52C28.2878 528.69 27.1973 535.656 25.4395 541.418C23.7142 547.18 21.6146 551.818 19.1406 555.334ZM79.834 536.096C79.834 530.92 80.8431 526.265 82.8613 522.131C84.9121 517.997 87.7441 514.807 91.3574 512.561C95.0033 510.314 99.1536 509.191 103.809 509.191C111.003 509.191 116.813 511.682 121.24 516.662C125.7 521.643 127.93 528.267 127.93 536.535V537.17C127.93 542.313 126.937 546.936 124.951 551.037C122.998 555.106 120.182 558.28 116.504 560.559C112.858 562.837 108.659 563.977 103.906 563.977C96.7448 563.977 90.9342 561.486 86.4746 556.506C82.0475 551.525 79.834 544.934 79.834 536.73V536.096ZM88.916 537.17C88.916 543.029 90.2669 547.733 92.9688 551.281C95.7031 554.829 99.349 556.604 103.906 556.604C108.496 556.604 112.142 554.813 114.844 551.232C117.546 547.619 118.896 542.574 118.896 536.096C118.896 530.301 117.513 525.614 114.746 522.033C112.012 518.42 108.366 516.613 103.809 516.613C99.349 516.613 95.752 518.387 93.0176 521.936C90.2832 525.484 88.916 530.562 88.916 537.17ZM182.471 563H173.438V517.639H149.121V563H140.039V510.168H182.471V563ZM214.258 549.768L226.562 510.168H236.23L214.99 571.154C211.702 579.943 206.478 584.338 199.316 584.338L197.607 584.191L194.238 583.557V576.232L196.68 576.428C199.74 576.428 202.116 575.809 203.809 574.572C205.534 573.335 206.95 571.073 208.057 567.785L210.059 562.414L191.211 510.168H201.074L214.258 549.768ZM264.844 556.604C268.066 556.604 270.882 555.627 273.291 553.674C275.7 551.721 277.035 549.279 277.295 546.35H285.84C285.677 549.377 284.635 552.258 282.715 554.992C280.794 557.727 278.223 559.908 275 561.535C271.81 563.163 268.424 563.977 264.844 563.977C257.65 563.977 251.921 561.584 247.656 556.799C243.424 551.981 241.309 545.406 241.309 537.072V535.559C241.309 530.415 242.253 525.842 244.141 521.838C246.029 517.834 248.73 514.725 252.246 512.512C255.794 510.298 259.977 509.191 264.795 509.191C270.719 509.191 275.635 510.965 279.541 514.514C283.48 518.062 285.579 522.668 285.84 528.332H277.295C277.035 524.914 275.732 522.115 273.389 519.934C271.077 517.72 268.213 516.613 264.795 516.613C260.205 516.613 256.641 518.273 254.102 521.594C251.595 524.882 250.342 529.65 250.342 535.9V537.609C250.342 543.697 251.595 548.384 254.102 551.672C256.608 554.96 260.189 556.604 264.844 556.604ZM312.451 540.49H305.859V563H296.777V510.168H305.859V532.531H311.768L329.541 510.168H340.479L319.58 535.559L342.236 563H330.762L312.451 540.49ZM391.26 540.49H384.668V563H375.586V510.168H384.668V532.531H390.576L408.35 510.168H419.287L398.389 535.559L421.045 563H409.57L391.26 540.49ZM484.033 551.037L502.002 510.168H513.281V563H504.248V524.572L487.158 563H480.908L463.477 523.742V563H454.443V510.168H466.162L484.033 551.037ZM549.756 563.977C542.594 563.977 536.768 561.633 532.275 556.945C527.783 552.225 525.537 545.926 525.537 538.049V536.389C525.537 531.148 526.53 526.477 528.516 522.375C530.534 518.241 533.333 515.018 536.914 512.707C540.527 510.363 544.434 509.191 548.633 509.191C555.501 509.191 560.84 511.454 564.648 515.979C568.457 520.503 570.361 526.981 570.361 535.412V539.172H534.57C534.701 544.38 536.214 548.596 539.111 551.818C542.041 555.008 545.752 556.604 550.244 556.604C553.434 556.604 556.136 555.952 558.35 554.65C560.563 553.348 562.5 551.623 564.16 549.475L569.678 553.771C565.251 560.575 558.61 563.977 549.756 563.977ZM548.633 516.613C544.987 516.613 541.927 517.948 539.453 520.617C536.979 523.254 535.449 526.965 534.863 531.75H561.328V531.066C561.068 526.477 559.831 522.928 557.617 520.422C555.404 517.883 552.409 516.613 548.633 516.613ZM622.998 540.051H616.65V563H607.617V540.051H601.27L586.475 563H575.049L593.945 535.656L576.855 510.168H587.793L601.416 532.043H607.617V510.168H616.65V532.043H622.803L636.523 510.168H647.461L630.322 535.705L649.219 563H637.793L622.998 540.051ZM656.982 555.627L660.107 551.77C663.623 547.212 665.625 540.376 666.113 531.262L666.943 510.168H700.977V555.627H707.764V578.527H698.73V563H661.865V578.527H652.832L652.881 555.627H656.982ZM667.676 555.627H691.943V518.518H675.684L675.146 531.115C674.593 541.63 672.103 549.8 667.676 555.627ZM735.059 549.768L747.363 510.168H757.031L735.791 571.154C732.503 579.943 727.279 584.338 720.117 584.338L718.408 584.191L715.039 583.557V576.232L717.48 576.428C720.54 576.428 722.917 575.809 724.609 574.572C726.335 573.335 727.751 571.073 728.857 567.785L730.859 562.414L712.012 510.168H721.875L735.059 549.768ZM808.301 563H799.268V540.441H775V563H765.918V510.168H775V533.068H799.268V510.168H808.301V563ZM855.469 563C854.948 561.958 854.525 560.103 854.199 557.434C850 561.796 844.987 563.977 839.16 563.977C833.952 563.977 829.671 562.512 826.318 559.582C822.998 556.62 821.338 552.876 821.338 548.352C821.338 542.85 823.421 538.586 827.588 535.559C831.787 532.499 837.679 530.969 845.264 530.969H854.053V526.818C854.053 523.661 853.109 521.154 851.221 519.299C849.333 517.411 846.549 516.467 842.871 516.467C839.648 516.467 836.947 517.281 834.766 518.908C832.585 520.536 831.494 522.505 831.494 524.816H822.412C822.412 522.18 823.34 519.641 825.195 517.199C827.083 514.725 829.622 512.772 832.812 511.34C836.035 509.908 839.567 509.191 843.408 509.191C849.495 509.191 854.264 510.721 857.715 513.781C861.165 516.809 862.956 520.992 863.086 526.33V550.646C863.086 555.497 863.704 559.354 864.941 562.219V563H855.469ZM840.479 556.115C843.311 556.115 845.996 555.383 848.535 553.918C851.074 552.453 852.913 550.549 854.053 548.205V537.365H846.973C835.905 537.365 830.371 540.604 830.371 547.082C830.371 549.914 831.315 552.128 833.203 553.723C835.091 555.318 837.516 556.115 840.479 556.115ZM921.875 537.17C921.875 545.21 920.036 551.688 916.357 556.604C912.679 561.519 907.699 563.977 901.416 563.977C895.003 563.977 889.958 561.942 886.279 557.873V583.312H877.246V510.168H885.498L885.938 516.027C889.616 511.47 894.727 509.191 901.27 509.191C907.617 509.191 912.63 511.584 916.309 516.369C920.02 521.154 921.875 527.811 921.875 536.34V537.17ZM912.842 536.145C912.842 530.188 911.572 525.484 909.033 522.033C906.494 518.583 903.011 516.857 898.584 516.857C893.115 516.857 889.014 519.283 886.279 524.133V549.377C888.981 554.195 893.115 556.604 898.682 556.604C903.011 556.604 906.445 554.895 908.984 551.477C911.556 548.026 912.842 542.915 912.842 536.145ZM931.006 536.096C931.006 530.92 932.015 526.265 934.033 522.131C936.084 517.997 938.916 514.807 942.529 512.561C946.175 510.314 950.326 509.191 954.98 509.191C962.174 509.191 967.985 511.682 972.412 516.662C976.872 521.643 979.102 528.267 979.102 536.535V537.17C979.102 542.313 978.109 546.936 976.123 551.037C974.17 555.106 971.354 558.28 967.676 560.559C964.03 562.837 959.831 563.977 955.078 563.977C947.917 563.977 942.106 561.486 937.646 556.506C933.219 551.525 931.006 544.934 931.006 536.73V536.096ZM940.088 537.17C940.088 543.029 941.439 547.733 944.141 551.281C946.875 554.829 950.521 556.604 955.078 556.604C959.668 556.604 963.314 554.813 966.016 551.232C968.717 547.619 970.068 542.574 970.068 536.096C970.068 530.301 968.685 525.614 965.918 522.033C963.184 518.42 959.538 516.613 954.98 516.613C950.521 516.613 946.924 518.387 944.189 521.936C941.455 525.484 940.088 530.562 940.088 537.17ZM986.475 555.627L989.6 551.77C993.115 547.212 995.117 540.376 995.605 531.262L996.436 510.168H1030.47V555.627H1037.26V578.527H1028.22V563H991.357V578.527H982.324L982.373 555.627H986.475ZM997.168 555.627H1021.44V518.518H1005.18L1004.64 531.115C1004.09 541.63 1001.6 549.8 997.168 555.627ZM1090.43 563H1081.4V540.441H1057.13V563H1048.05V510.168H1057.13V533.068H1081.4V510.168H1090.43V563ZM1114.84 528.381H1128.56C1134.55 528.446 1139.29 530.008 1142.77 533.068C1146.26 536.128 1148 540.279 1148 545.52C1148 550.793 1146.21 555.025 1142.63 558.215C1139.05 561.405 1134.23 563 1128.17 563H1105.81V510.168H1114.84V528.381ZM1166.85 563H1157.76V510.168H1166.85V563ZM1114.84 535.754V555.627H1128.27C1131.66 555.627 1134.28 554.764 1136.13 553.039C1137.99 551.281 1138.92 548.889 1138.92 545.861C1138.92 542.932 1138 540.539 1136.18 538.684C1134.39 536.796 1131.87 535.819 1128.61 535.754H1114.84ZM1213.04 551.037L1231.01 510.168H1242.29V563H1233.25V524.572L1216.16 563H1209.91L1192.48 523.742V563H1183.45V510.168H1195.17L1213.04 551.037ZM403.809 680H394.775V634.639H370.459V680H361.377V627.168H403.809V680ZM440.234 680.977C433.073 680.977 427.246 678.633 422.754 673.945C418.262 669.225 416.016 662.926 416.016 655.049V653.389C416.016 648.148 417.008 643.477 418.994 639.375C421.012 635.241 423.812 632.018 427.393 629.707C431.006 627.363 434.912 626.191 439.111 626.191C445.98 626.191 451.318 628.454 455.127 632.979C458.936 637.503 460.84 643.981 460.84 652.412V656.172H425.049C425.179 661.38 426.693 665.596 429.59 668.818C432.52 672.008 436.23 673.604 440.723 673.604C443.913 673.604 446.615 672.952 448.828 671.65C451.042 670.348 452.979 668.623 454.639 666.475L460.156 670.771C455.729 677.575 449.089 680.977 440.234 680.977ZM439.111 633.613C435.465 633.613 432.406 634.948 429.932 637.617C427.458 640.254 425.928 643.965 425.342 648.75H451.807V648.066C451.546 643.477 450.309 639.928 448.096 637.422C445.882 634.883 442.887 633.613 439.111 633.613ZM515.967 654.17C515.967 662.21 514.128 668.688 510.449 673.604C506.771 678.519 501.79 680.977 495.508 680.977C489.095 680.977 484.049 678.942 480.371 674.873V700.312H471.338V627.168H479.59L480.029 633.027C483.708 628.47 488.818 626.191 495.361 626.191C501.709 626.191 506.722 628.584 510.4 633.369C514.111 638.154 515.967 644.811 515.967 653.34V654.17ZM506.934 653.145C506.934 647.188 505.664 642.484 503.125 639.033C500.586 635.583 497.103 633.857 492.676 633.857C487.207 633.857 483.105 636.283 480.371 641.133V666.377C483.073 671.195 487.207 673.604 492.773 673.604C497.103 673.604 500.537 671.895 503.076 668.477C505.648 665.026 506.934 659.915 506.934 653.145ZM549.414 680.977C542.253 680.977 536.426 678.633 531.934 673.945C527.441 669.225 525.195 662.926 525.195 655.049V653.389C525.195 648.148 526.188 643.477 528.174 639.375C530.192 635.241 532.992 632.018 536.572 629.707C540.186 627.363 544.092 626.191 548.291 626.191C555.16 626.191 560.498 628.454 564.307 632.979C568.115 637.503 570.02 643.981 570.02 652.412V656.172H534.229C534.359 661.38 535.872 665.596 538.77 668.818C541.699 672.008 545.41 673.604 549.902 673.604C553.092 673.604 555.794 672.952 558.008 671.65C560.221 670.348 562.158 668.623 563.818 666.475L569.336 670.771C564.909 677.575 558.268 680.977 549.414 680.977ZM548.291 633.613C544.645 633.613 541.585 634.948 539.111 637.617C536.637 640.254 535.107 643.965 534.521 648.75H560.986V648.066C560.726 643.477 559.489 639.928 557.275 637.422C555.062 634.883 552.067 633.613 548.291 633.613ZM581.348 680V627.168H601.953C608.984 627.168 614.372 628.405 618.115 630.879C621.891 633.32 623.779 636.917 623.779 641.67C623.779 644.111 623.047 646.325 621.582 648.311C620.117 650.264 617.952 651.761 615.088 652.803C618.278 653.551 620.833 655.016 622.754 657.197C624.707 659.378 625.684 661.982 625.684 665.01C625.684 669.86 623.893 673.571 620.312 676.143C616.764 678.714 611.735 680 605.225 680H581.348ZM590.381 656.807V672.725H605.322C609.098 672.725 611.914 672.025 613.77 670.625C615.658 669.225 616.602 667.256 616.602 664.717C616.602 659.443 612.728 656.807 604.98 656.807H590.381ZM590.381 649.58H602.051C610.514 649.58 614.746 647.106 614.746 642.158C614.746 637.21 610.742 634.655 602.734 634.492H590.381V649.58ZM635.254 653.096C635.254 647.92 636.263 643.265 638.281 639.131C640.332 634.997 643.164 631.807 646.777 629.561C650.423 627.314 654.574 626.191 659.229 626.191C666.423 626.191 672.233 628.682 676.66 633.662C681.12 638.643 683.35 645.267 683.35 653.535V654.17C683.35 659.313 682.357 663.936 680.371 668.037C678.418 672.106 675.602 675.28 671.924 677.559C668.278 679.837 664.079 680.977 659.326 680.977C652.165 680.977 646.354 678.486 641.895 673.506C637.467 668.525 635.254 661.934 635.254 653.73V653.096ZM644.336 654.17C644.336 660.029 645.687 664.733 648.389 668.281C651.123 671.829 654.769 673.604 659.326 673.604C663.916 673.604 667.562 671.813 670.264 668.232C672.965 664.619 674.316 659.574 674.316 653.096C674.316 647.301 672.933 642.614 670.166 639.033C667.432 635.42 663.786 633.613 659.229 633.613C654.769 633.613 651.172 635.387 648.438 638.936C645.703 642.484 644.336 647.562 644.336 654.17ZM723.73 641.621C723.73 639.147 722.786 637.194 720.898 635.762C719.01 634.297 716.423 633.564 713.135 633.564C709.945 633.564 707.275 634.395 705.127 636.055C703.011 637.715 701.953 639.668 701.953 641.914H692.969C692.969 637.324 694.889 633.564 698.73 630.635C702.572 627.705 707.373 626.24 713.135 626.24C719.32 626.24 724.137 627.575 727.588 630.244C731.038 632.881 732.764 636.657 732.764 641.572C732.764 643.949 732.048 646.13 730.615 648.115C729.183 650.101 727.148 651.68 724.512 652.852C730.664 654.935 733.74 659.036 733.74 665.156C733.74 670.007 731.868 673.848 728.125 676.68C724.382 679.512 719.385 680.928 713.135 680.928C707.048 680.928 702.018 679.447 698.047 676.484C694.108 673.49 692.139 669.453 692.139 664.375H701.123C701.123 666.947 702.262 669.16 704.541 671.016C706.852 672.839 709.717 673.75 713.135 673.75C716.585 673.75 719.368 672.952 721.484 671.357C723.6 669.762 724.658 667.695 724.658 665.156C724.658 662.194 723.763 660.078 721.973 658.809C720.215 657.507 717.464 656.855 713.721 656.855H704.688V649.238H714.502C720.654 649.076 723.73 646.536 723.73 641.621ZM761.914 657.49H755.322V680H746.24V627.168H755.322V649.531H761.23L779.004 627.168H789.941L769.043 652.559L791.699 680H780.225L761.914 657.49ZM832.08 680C831.559 678.958 831.136 677.103 830.811 674.434C826.611 678.796 821.598 680.977 815.771 680.977C810.563 680.977 806.283 679.512 802.93 676.582C799.609 673.62 797.949 669.876 797.949 665.352C797.949 659.85 800.033 655.586 804.199 652.559C808.398 649.499 814.29 647.969 821.875 647.969H830.664V643.818C830.664 640.661 829.72 638.154 827.832 636.299C825.944 634.411 823.161 633.467 819.482 633.467C816.26 633.467 813.558 634.281 811.377 635.908C809.196 637.536 808.105 639.505 808.105 641.816H799.023C799.023 639.18 799.951 636.641 801.807 634.199C803.695 631.725 806.234 629.772 809.424 628.34C812.646 626.908 816.178 626.191 820.02 626.191C826.107 626.191 830.876 627.721 834.326 630.781C837.777 633.809 839.567 637.992 839.697 643.33V667.646C839.697 672.497 840.316 676.354 841.553 679.219V680H832.08ZM817.09 673.115C819.922 673.115 822.607 672.383 825.146 670.918C827.686 669.453 829.525 667.549 830.664 665.205V654.365H823.584C812.516 654.365 806.982 657.604 806.982 664.082C806.982 666.914 807.926 669.128 809.814 670.723C811.702 672.318 814.128 673.115 817.09 673.115ZM884.277 668.037L902.246 627.168H913.525V680H904.492V641.572L887.402 680H881.152L863.721 640.742V680H854.688V627.168H866.406L884.277 668.037Z" fill="black"/>
<path d="M399.361 128.906L422.604 186.914L445.846 128.906H458.004V200H448.629V172.314L449.508 142.432L426.168 200H418.99L395.699 142.578L396.627 172.314V200H387.252V128.906H399.361ZM514.693 181.445H484.908L478.219 200H468.551L495.699 128.906H503.902L531.1 200H521.48L514.693 181.445ZM487.74 173.73H511.91L499.801 140.479L487.74 173.73ZM594.967 200H585.543V136.621H550.484V200H541.109V128.906H594.967V200ZM630.514 168.066H621.871V200H612.496V128.906H621.871V160.254H629.195L654.049 128.906H665.719L638.57 163.379L667.721 200H656.246L630.514 168.066ZM715.572 181.445H685.787L679.098 200H669.43L696.578 128.906H704.781L731.979 200H722.359L715.572 181.445ZM688.619 173.73H712.789L700.68 140.479L688.619 173.73ZM750.924 172.168V200H741.549V128.906H767.77C775.549 128.906 781.637 130.892 786.031 134.863C790.458 138.835 792.672 144.092 792.672 150.635C792.672 157.536 790.507 162.858 786.178 166.602C781.881 170.312 775.712 172.168 767.672 172.168H750.924ZM750.924 164.502H767.77C772.783 164.502 776.624 163.33 779.293 160.986C781.962 158.61 783.297 155.192 783.297 150.732C783.297 146.501 781.962 143.115 779.293 140.576C776.624 138.037 772.962 136.719 768.307 136.621H750.924V164.502ZM853.756 136.621H830.904V200H821.578V136.621H798.775V128.906H853.756V136.621ZM899.654 181.445H869.869L863.18 200H853.512L880.66 128.906H888.863L916.061 200H906.441L899.654 181.445ZM872.701 173.73H896.871L884.762 140.479L872.701 173.73ZM924.41 195.264C924.41 193.701 924.866 192.399 925.777 191.357C926.721 190.316 928.121 189.795 929.977 189.795C931.832 189.795 933.232 190.316 934.176 191.357C935.152 192.399 935.641 193.701 935.641 195.264C935.641 196.761 935.152 198.014 934.176 199.023C933.232 200.033 931.832 200.537 929.977 200.537C928.121 200.537 926.721 200.033 925.777 199.023C924.866 198.014 924.41 196.761 924.41 195.264ZM961.373 172.168V200H951.998V128.906H978.219C985.999 128.906 992.086 130.892 996.48 134.863C1000.91 138.835 1003.12 144.092 1003.12 150.635C1003.12 157.536 1000.96 162.858 996.627 166.602C992.33 170.312 986.161 172.168 978.121 172.168H961.373ZM961.373 164.502H978.219C983.232 164.502 987.073 163.33 989.742 160.986C992.411 158.61 993.746 155.192 993.746 150.732C993.746 146.501 992.411 143.115 989.742 140.576C987.073 138.037 983.411 136.719 978.756 136.621H961.373V164.502ZM1050.19 136.035H1051.71C1057.08 136.068 1061.98 137.321 1066.4 139.795C1070.83 142.269 1074.26 145.687 1076.71 150.049C1079.18 154.378 1080.42 159.229 1080.42 164.6C1080.42 170.003 1079.18 174.902 1076.71 179.297C1074.23 183.691 1070.81 187.126 1066.45 189.6C1062.09 192.041 1057.24 193.294 1051.9 193.359H1050.19V202.93H1041.11V193.359H1039.74C1034.31 193.359 1029.36 192.122 1024.9 189.648C1020.47 187.174 1017.02 183.757 1014.55 179.395C1012.11 175.033 1010.88 170.133 1010.88 164.697C1010.88 159.261 1012.11 154.362 1014.55 150C1017.02 145.638 1020.47 142.22 1024.9 139.746C1029.36 137.272 1034.31 136.035 1039.74 136.035H1041.11V125.977H1050.19V136.035ZM1039.74 143.408C1033.62 143.408 1028.77 145.296 1025.19 149.072C1021.64 152.816 1019.87 158.024 1019.87 164.697C1019.87 171.403 1021.64 176.628 1025.19 180.371C1028.74 184.082 1033.62 185.938 1039.84 185.938H1041.11V143.408H1039.74ZM1050.19 143.408V185.938H1051.56C1057.78 185.938 1062.63 184.033 1066.11 180.225C1069.62 176.383 1071.38 171.175 1071.38 164.6C1071.38 158.089 1069.62 152.93 1066.11 149.121C1062.63 145.312 1057.71 143.408 1051.36 143.408H1050.19Z" fill="black"/>
<circle cx="1032" cy="341" r="52" stroke="black" stroke-width="14"/>
<path d="M1052.11 328.398C1048.09 329.371 1045.61 333.441 1046.58 337.461C1046.86 338.609 1047 339.801 1047 341C1046.98 349.262 1040.25 355.992 1032 356C1023.74 355.992 1017.01 349.262 1017 341C1017.01 332.742 1023.74 326.02 1032 326C1036.13 326 1039.5 322.641 1039.5 318.5C1039.5 314.371 1036.13 311 1032 311C1015.41 311 1002 324.438 1002 341C1002 357.566 1015.4 371 1032 371C1048.57 371 1061.98 357.598 1062 341C1062 338.621 1061.72 336.242 1061.16 333.941C1060.17 329.852 1056.11 327.438 1052.11 328.398Z" fill="black"/>
<rect x="961" y="281" width="142" height="15" rx="4" fill="black"/>
<line x1="40" y1="407.5" x2="1122" y2="407.5" stroke="black" stroke-width="9"/>
</svg>
