<?xml version="1.0" encoding="iso-8859-1"?>
<!-- Generator: Adobe Illustrator 19.0.0, SVG Export Plug-In . SVG Version: 6.00 Build 0)  -->
<svg version="1.1" id="Layer_1" xmlns="http://www.w3.org/2000/svg" xmlns:xlink="http://www.w3.org/1999/xlink" x="0px" y="0px"
	 viewBox="0 0 512 512" style="enable-background:new 0 0 512 512;" xml:space="preserve">
<rect x="11.13" y="11.13" style="fill:#FFE66A;" width="489.739" height="489.739"/>
<g>
	<circle style="fill:#637189;" cx="90.157" cy="89.043" r="33.391"/>
	<circle style="fill:#637189;" cx="90.157" cy="422.957" r="33.391"/>
	<circle style="fill:#637189;" cx="424.07" cy="422.957" r="33.391"/>
	<circle style="fill:#637189;" cx="424.07" cy="89.043" r="33.391"/>
</g>
<path d="M89.043,133.565c24.549,0,44.522-19.972,44.522-44.522s-19.972-44.522-44.522-44.522S44.522,64.494,44.522,89.043
	S64.494,133.565,89.043,133.565z M89.043,66.783c12.275,0,22.261,9.986,22.261,22.261s-9.986,22.261-22.261,22.261
	s-22.261-9.986-22.261-22.261S76.769,66.783,89.043,66.783z"/>
<path d="M89.043,467.478c24.549,0,44.522-19.972,44.522-44.522s-19.972-44.522-44.522-44.522s-44.522,19.972-44.522,44.522
	S64.494,467.478,89.043,467.478z M89.043,400.696c12.275,0,22.261,9.986,22.261,22.261s-9.986,22.261-22.261,22.261
	s-22.261-9.986-22.261-22.261S76.769,400.696,89.043,400.696z"/>
<path d="M422.957,467.478c24.549,0,44.522-19.972,44.522-44.522s-19.972-44.522-44.522-44.522s-44.522,19.972-44.522,44.522
	S398.407,467.478,422.957,467.478z M422.957,400.696c12.275,0,22.261,9.986,22.261,22.261s-9.986,22.261-22.261,22.261
	s-22.261-9.986-22.261-22.261S410.682,400.696,422.957,400.696z"/>
<path d="M422.957,133.565c24.549,0,44.522-19.972,44.522-44.522s-19.972-44.522-44.522-44.522s-44.522,19.972-44.522,44.522
	S398.407,133.565,422.957,133.565z M422.957,66.783c12.275,0,22.261,9.986,22.261,22.261s-9.986,22.261-22.261,22.261
	s-22.261-9.986-22.261-22.261S410.682,66.783,422.957,66.783z"/>
<path d="M500.87,0H11.13C4.983,0,0,4.983,0,11.13V500.87C0,507.017,4.983,512,11.13,512H500.87c6.147,0,11.13-4.983,11.13-11.13
	V11.13C512,4.983,507.017,0,500.87,0z M489.739,489.739H22.261V22.261h467.478V489.739z"/>
<path d="M191.241,224.11c6.147,0,11.13-4.983,11.13-11.13c0-29.571,24.057-53.629,53.629-53.629s53.629,24.057,53.629,53.629
	c0,29.57-24.057,53.629-53.629,53.629c-6.147,0-11.13,4.983-11.13,11.13v48.569c0,6.147,4.983,11.13,11.13,11.13
	s11.13-4.983,11.13-11.13v-38.253c36.589-5.4,64.759-37.01,64.759-75.075c0-41.846-34.044-75.89-75.89-75.89
	s-75.89,34.044-75.89,75.89C180.11,219.127,185.094,224.11,191.241,224.11z"/>
<path d="M256,351.768c-6.147,0-11.13,4.983-11.13,11.13v0.882c0,6.147,4.983,11.13,11.13,11.13s11.13-4.983,11.13-11.13v-0.882
	C267.13,356.752,262.147,351.768,256,351.768z"/>
<g>
</g>
<g>
</g>
<g>
</g>
<g>
</g>
<g>
</g>
<g>
</g>
<g>
</g>
<g>
</g>
<g>
</g>
<g>
</g>
<g>
</g>
<g>
</g>
<g>
</g>
<g>
</g>
<g>
</g>
</svg>
