<svg width="512" height="512" viewBox="0 0 512 512" fill="none" xmlns="http://www.w3.org/2000/svg">
<g clip-path="url(#clip0)">
<path d="M453.332 0H58.668C26.3047 0 0 26.3047 0 58.668V453.332C0 485.695 26.3047 512 58.668 512H453.332C485.695 512 512 485.695 512 453.332V58.668C512 26.3047 485.695 0 453.332 0V0Z" fill="#E4D01B"/>
<path d="M277.332 384C277.332 395.781 267.781 405.332 256 405.332C244.219 405.332 234.668 395.781 234.668 384C234.668 372.219 244.219 362.668 256 362.668C267.781 362.668 277.332 372.219 277.332 384Z" fill="black"/>
<path d="M256 314.668C247.168 314.668 240 307.5 240 298.668V277.121C240 256.812 252.887 238.613 272.02 231.852C297.535 222.871 314.668 195.734 314.668 176C314.668 143.637 288.363 117.332 256 117.332C223.637 117.332 197.332 143.637 197.332 176C197.332 184.832 190.164 192 181.332 192C172.5 192 165.332 184.832 165.332 176C165.332 125.996 206.016 85.332 256 85.332C305.984 85.332 346.668 125.996 346.668 176C346.668 211.605 318.57 249.387 282.668 262.016C276.289 264.277 272 270.355 272 277.121V298.668C272 307.5 264.832 314.668 256 314.668V314.668Z" fill="black"/>
<path d="M453.332 512H58.668C26.3047 512 0 485.695 0 453.332V58.668C0 26.3047 26.3047 0 58.668 0H453.332C485.695 0 512 26.3047 512 58.668V453.332C512 485.695 485.695 512 453.332 512V512ZM58.668 32C43.9688 32 32 43.9688 32 58.668V453.332C32 468.031 43.9688 480 58.668 480H453.332C468.031 480 480 468.031 480 453.332V58.668C480 43.9688 468.031 32 453.332 32H58.668Z" fill="black"/>
</g>
<defs>
<clipPath id="clip0">
<rect width="512" height="512" fill="white"/>
</clipPath>
</defs>
</svg>
