<svg width="512" height="512" viewBox="0 0 512 512" fill="none" xmlns="http://www.w3.org/2000/svg">
<g clip-path="url(#clip0)">
<path d="M302.942 264.491C298.231 264.491 294.408 268.305 294.408 273.024V392.533H38.4085V68.2667H294.408V187.716C294.408 192.435 298.231 196.25 302.942 196.25C307.652 196.25 311.475 192.435 311.475 187.716V37.5893C311.475 16.8704 294.613 0 273.877 0H58.9311C38.2037 0 21.3418 16.8704 21.3418 37.5893V474.402C21.3418 495.13 38.2037 512 58.9311 512H273.877C294.605 512 311.467 495.13 311.467 474.411V273.024C311.475 268.305 307.652 264.491 302.942 264.491ZM58.9311 17.0667H273.877C285.192 17.0667 294.4 26.2741 294.4 37.5893V51.2H38.3999V37.5893C38.4085 26.2741 47.6159 17.0667 58.9311 17.0667ZM273.877 494.933H58.9311C47.6159 494.933 38.4085 485.726 38.4085 474.411V409.6H294.408V474.411C294.408 485.726 285.201 494.933 273.877 494.933Z" fill="#1F49BD"/>
<path d="M166.409 418.133C147.584 418.133 132.275 433.442 132.275 452.267C132.275 471.091 147.584 486.4 166.409 486.4C185.233 486.4 200.542 471.091 200.542 452.267C200.542 433.442 185.225 418.133 166.409 418.133ZM166.409 469.333C156.996 469.333 149.342 461.679 149.342 452.267C149.342 442.854 156.996 435.2 166.409 435.2C175.821 435.2 183.475 442.854 183.475 452.267C183.475 461.679 175.821 469.333 166.409 469.333Z" fill="#1F49BD"/>
<path d="M132.276 42.6668H166.409C171.119 42.6668 174.942 38.8524 174.942 34.1334C174.942 29.4145 171.119 25.6001 166.409 25.6001H132.276C127.565 25.6001 123.742 29.4145 123.742 34.1334C123.742 38.8524 127.557 42.6668 132.276 42.6668Z" fill="#1F49BD"/>
<path d="M192.009 42.6668H200.542C205.253 42.6668 209.076 38.8524 209.076 34.1334C209.076 29.4145 205.253 25.6001 200.542 25.6001H192.009C187.299 25.6001 183.476 29.4145 183.476 34.1334C183.476 38.8524 187.29 42.6668 192.009 42.6668Z" fill="#1F49BD"/>
<path d="M490.018 233.66C490.88 231.578 490.88 229.222 490.018 227.14C489.583 226.091 488.951 225.144 488.166 224.35L385.775 121.967C382.438 118.63 377.045 118.63 373.709 121.967C370.372 125.304 370.372 130.697 373.709 134.033L461.542 221.867H157.875C153.165 221.867 149.342 225.681 149.342 230.4C149.342 235.119 153.165 238.933 157.875 238.933H461.542L373.709 326.767C370.372 330.104 370.372 335.497 373.709 338.833C375.373 340.497 377.557 341.333 379.742 341.333C381.926 341.333 384.111 340.497 385.775 338.833L488.166 236.442C488.951 235.657 489.583 234.709 490.018 233.66Z" fill="#1F49BD"/>
</g>
<defs>
<clipPath id="clip0">
<rect width="512" height="512" fill="white"/>
</clipPath>
</defs>
</svg>
